<?xml version="1.0" standalone="no"?>
<!DOCTYPE svg PUBLIC "-//W3C//DTD SVG 20010904//EN"
 "http://www.w3.org/TR/2001/REC-SVG-20010904/DTD/svg10.dtd">
<svg version="1.0" xmlns="http://www.w3.org/2000/svg"
 width="1024.000000pt" height="1024.000000pt" viewBox="0 0 1024.000000 1024.000000"
 preserveAspectRatio="xMidYMid meet">

<g transform="translate(0.000000,1024.000000) scale(0.100000,-0.100000)"
fill="#000000" stroke="none">
<path d="M1525 10224 c-772 -104 -1373 -684 -1502 -1449 -17 -106 -18 -254
-18 -3655 0 -2907 2 -3560 13 -3630 57 -356 217 -678 471 -942 261 -273 544
-430 924 -515 l122 -28 3525 -2 c3137 -3 3538 -2 3645 12 317 41 578 148 837
343 l87 65 -20 26 c-28 36 -105 89 -140 96 -39 9 -37 18 9 34 80 29 172 123
187 192 8 37 22 37 30 0 7 -35 60 -112 97 -140 l26 -21 55 73 c172 226 275
449 335 726 l27 126 0 3570 c0 3428 -1 3574 -18 3675 -68 385 -248 719 -530
986 -283 267 -617 420 -1009 463 -67 8 -1180 11 -3575 10 -2860 -1 -3496 -3
-3578 -15z m2169 -2486 c3 -13 10 -219 16 -458 6 -239 15 -563 20 -719 9 -265
9 -286 -7 -304 -10 -11 -79 -73 -153 -138 l-135 -119 -390 0 -390 0 -95 80
c-52 44 -125 106 -162 137 -56 47 -68 63 -68 88 0 16 -7 120 -15 230 -8 110
-15 228 -15 263 l0 62 268 0 269 0 7 -101 c3 -55 9 -168 13 -250 l6 -149 169
0 170 0 -6 98 c-6 89 -14 277 -32 750 l-7 172 -272 0 -273 0 -5 43 c-4 23 -9
108 -13 190 l-7 147 551 0 552 0 4 -22z m1328 -44 c106 -95 99 -94 166 -31
114 107 66 97 464 97 l349 0 77 -72 c43 -40 101 -95 131 -122 l53 -48 -12
-657 c-6 -361 -13 -702 -16 -758 l-6 -103 -265 0 -264 0 7 685 7 685 -166 0
-167 0 0 -685 0 -685 -255 0 -255 0 0 198 c0 108 -3 416 -7 685 l-6 487 -160
0 -159 0 7 -657 c5 -362 8 -669 9 -683 l1 -25 -265 0 -265 0 -7 290 c-3 160
-12 499 -18 754 l-11 465 128 122 128 123 352 0 352 1 73 -66z m2794 -51 l124
-118 0 -86 c0 -47 -3 -114 -6 -148 l-7 -61 -261 2 -261 3 3 73 2 72 -159 0
-159 0 -6 -102 c-6 -107 -26 -788 -26 -870 l0 -48 159 0 c188 0 171 -18 171
178 l0 132 -70 0 -69 0 5 158 c3 86 7 167 10 180 l4 22 325 0 325 0 0 -22 c0
-13 -9 -219 -20 -458 -11 -239 -20 -461 -20 -492 l0 -58 -537 0 -538 0 -144
132 -144 132 7 410 c3 226 9 510 13 631 l7 220 130 117 131 117 443 1 444 0
124 -117z m-3996 -1667 c0 -46 3 -104 6 -130 l7 -46 418 0 c314 0 424 3 439
12 15 10 22 10 32 0 9 -9 108 -12 404 -12 343 0 395 2 408 16 14 14 18 14 38
0 20 -14 78 -16 440 -16 l418 0 0 78 c0 42 3 100 6 129 l7 51 106 -95 c58 -52
123 -107 143 -122 21 -14 38 -28 38 -31 0 -15 -113 -200 -170 -277 -138 -187
-279 -321 -474 -450 -99 -66 -131 -93 -142 -119 -10 -24 -14 -81 -14 -201 0
-238 -15 -263 -161 -263 l-76 0 -6 -197 c-4 -108 -7 -319 -7 -468 0 -167 -4
-284 -11 -303 -6 -16 -37 -53 -70 -82 -32 -28 -62 -61 -65 -74 -3 -13 5 -46
21 -82 51 -113 86 -217 91 -273 4 -31 -1 -116 -10 -189 -15 -120 -15 -141 -1
-220 8 -48 15 -107 15 -132 0 -43 -3 -47 -80 -120 -44 -41 -80 -80 -80 -85 0
-6 19 -33 42 -60 66 -80 116 -162 123 -205 17 -100 -134 -387 -333 -637 -45
-56 -90 -107 -102 -113 l-20 -11 -2 1735 c-3 1689 -3 1734 -22 1755 -26 29
-86 29 -112 0 -18 -21 -19 -68 -24 -1757 l-5 -1735 -52 54 c-154 160 -365 510
-395 653 -11 50 -10 57 15 107 14 30 51 85 81 123 77 96 78 103 25 146 -98 79
-110 94 -116 137 -3 24 2 82 12 134 17 87 17 98 0 242 -20 176 -15 215 51 374
20 48 41 105 47 126 l12 39 -67 62 c-47 44 -69 72 -77 101 -6 24 -11 133 -11
271 0 127 -3 333 -7 457 l-6 227 -74 0 c-81 0 -124 16 -145 53 -8 14 -14 87
-18 214 -6 223 0 209 -135 297 -183 119 -380 309 -509 491 -76 107 -150 239
-144 255 2 4 46 44 98 88 52 44 115 99 140 121 25 22 48 40 53 41 4 0 7 -38 7
-84z"/>
</g>
</svg>
