<?xml version="1.0" standalone="no"?>
<!DOCTYPE svg PUBLIC "-//W3C//DTD SVG 20010904//EN"
 "http://www.w3.org/TR/2001/REC-SVG-20010904/DTD/svg10.dtd">
<svg version="1.0" xmlns="http://www.w3.org/2000/svg"
 width="1024.000000pt" height="1024.000000pt" viewBox="0 0 1024.000000 1024.000000"
 preserveAspectRatio="xMidYMid meet">

<g transform="translate(0.000000,1024.000000) scale(0.100000,-0.100000)"
fill="#000000" stroke="none">
<path d="M1550 10229 c-263 -30 -502 -113 -720 -248 -273 -170 -507 -425 -650
-711 -63 -125 -124 -306 -152 -450 l-22 -115 -4 -3600 c-2 -2595 0 -3632 8
-3715 33 -334 159 -631 378 -884 164 -190 406 -345 677 -435 233 -77 -104 -72
4110 -69 l3770 4 85 21 c108 27 234 71 330 115 80 37 244 135 286 171 24 21
25 23 10 57 -33 77 -122 161 -187 175 -39 9 -37 18 9 34 80 29 172 123 187
192 9 39 18 37 34 -8 21 -58 66 -115 118 -150 84 -55 83 -56 153 49 118 176
207 393 247 598 17 91 18 261 21 3695 2 2618 0 3630 -8 3710 -42 411 -208 767
-491 1055 -291 297 -655 469 -1078 510 -129 12 -7001 11 -7111 -1z m2150
-2456 c0 -71 28 -1071 36 -1273 l6 -175 -150 -133 -150 -132 -395 0 -394 0
-120 103 c-65 56 -137 116 -158 133 l-39 32 -18 268 c-9 148 -17 281 -17 297
l-1 27 269 0 268 0 6 -57 c4 -32 9 -145 13 -250 l7 -193 170 0 170 0 -7 113
c-5 88 -35 830 -36 885 0 9 -62 12 -274 12 l-274 0 -6 108 c-3 59 -8 146 -11
195 l-5 87 555 0 555 0 0 -47z m1335 -33 l88 -80 46 39 c25 22 57 51 71 66 51
55 52 55 417 55 l338 0 134 -123 133 -123 -2 -184 c-1 -102 -7 -441 -14 -755
l-11 -570 -266 -3 -266 -2 5 685 5 686 -164 -3 -164 -3 -3 -682 -2 -683 -255
0 -255 0 0 303 c0 166 -3 474 -7 685 l-6 382 -160 0 -159 0 8 -590 c5 -325 9
-632 9 -683 l0 -92 -261 -3 -262 -2 -6 182 c-3 101 -12 440 -19 753 -12 518
-12 572 2 589 9 10 69 68 133 127 l117 109 345 0 344 0 87 -80z m2729 6 c44
-41 103 -97 130 -124 l50 -49 -3 -119 c-1 -65 -5 -129 -8 -141 l-5 -23 -259 0
-258 0 -3 72 -3 73 -154 -3 c-85 -1 -156 -3 -157 -5 -2 -1 -8 -151 -13 -332
-6 -182 -14 -408 -17 -502 l-7 -173 165 0 165 0 6 83 c4 45 7 115 7 155 l0 72
-70 0 -70 0 0 88 c0 49 3 130 6 180 l7 92 323 0 324 0 0 -57 c0 -32 -9 -245
-20 -473 -11 -228 -20 -434 -20 -457 l0 -43 -538 0 -537 0 -144 132 -144 131
7 321 c3 177 9 458 13 626 l6 305 134 123 134 122 436 0 436 0 81 -74z m-3939
-1787 l7 -105 414 -2 c363 -2 417 0 439 14 21 14 26 14 48 -1 22 -14 70 -15
405 -13 346 3 383 5 399 20 16 17 18 17 36 0 17 -15 57 -17 437 -20 l417 -3 7
47 c3 26 6 87 6 136 l0 88 108 -96 c59 -53 124 -108 144 -123 21 -14 38 -30
38 -35 0 -5 -16 -39 -37 -75 -142 -257 -364 -495 -613 -660 -77 -51 -120 -86
-129 -106 -10 -21 -16 -83 -19 -210 -6 -245 -11 -253 -157 -263 l-82 -5 -8
-476 c-5 -365 -10 -482 -20 -502 -8 -14 -39 -45 -69 -68 -31 -23 -58 -51 -61
-64 -4 -14 7 -50 29 -97 71 -155 81 -201 77 -345 -5 -213 -5 -315 4 -406 5
-59 4 -92 -4 -107 -6 -12 -43 -47 -81 -77 -39 -31 -70 -61 -70 -68 0 -7 27
-45 61 -86 134 -165 139 -216 40 -412 -94 -185 -248 -406 -355 -508 l-36 -35
0 1736 0 1735 -21 27 c-14 18 -30 26 -50 26 -46 0 -67 -16 -79 -60 -7 -27 -10
-562 -10 -1741 1 -935 -1 -1703 -4 -1706 -12 -12 -141 144 -240 291 -35 51
-96 157 -135 235 -62 125 -71 149 -71 197 0 63 14 95 79 178 77 97 90 118 84
132 -3 8 -34 37 -70 65 -93 73 -100 94 -77 237 16 101 16 125 4 225 -24 202
-17 243 71 454 46 108 44 119 -33 179 -81 64 -79 48 -84 467 -2 205 -7 417
-10 473 l-6 101 -79 6 c-140 11 -144 18 -154 267 -4 123 -11 193 -20 211 -8
14 -65 60 -127 102 -182 121 -347 277 -483 456 -51 68 -165 259 -165 276 1 5
22 26 48 46 26 20 92 76 147 124 99 87 100 88 102 59 1 -16 5 -77 8 -135z"/>
<path d="M9816 506 c-44 -31 -116 -117 -116 -139 0 -4 19 8 42 27 52 45 143
146 131 146 -5 0 -31 -15 -57 -34z"/>
</g>
</svg>
