<?xml version="1.0" encoding="UTF-8"?>
<svg version="1.1" xmlns="http://www.w3.org/2000/svg" width="1024" height="1024">
<path d="M0 0 C337.92 0 675.84 0 1024 0 C1024 337.92 1024 675.84 1024 1024 C686.08 1024 348.16 1024 0 1024 C0 686.08 0 348.16 0 0 Z " fill="#253977" transform="translate(0,0)"/>
<path d="M0 0 C0.66 0 1.32 0 2 0 C2 8.25 2 16.5 2 25 C12.88327729 24.91452924 23.76639697 24.82079511 34.64947128 24.71247292 C39.70280965 24.6625069 44.75612707 24.61617681 49.80957031 24.578125 C54.68555588 24.54127617 59.56136642 24.49491717 64.43720245 24.44193649 C66.29831118 24.42339043 68.15945744 24.40828325 70.02062225 24.39665604 C72.62558451 24.37979727 75.23014573 24.35076314 77.83496094 24.31884766 C78.60604187 24.31668747 79.3771228 24.31452728 80.17156982 24.31230164 C83.92326656 24.25350235 86.81479626 24.09556312 90 22 C90.99 22.66 91.98 23.32 93 24 C96.30347338 24.30611184 96.30347338 24.30611184 100.14599609 24.25878906 C101.23188271 24.26404602 101.23188271 24.26404602 102.33970642 24.26940918 C104.73438083 24.27821598 107.12876004 24.27237992 109.5234375 24.265625 C111.18869076 24.26697225 112.85394364 24.26891328 114.51919556 24.27142334 C118.01120749 24.27437342 121.50311714 24.2700818 124.99511719 24.26074219 C129.4663021 24.24936539 133.93724644 24.25589656 138.40842247 24.26788712 C141.8485596 24.27512396 145.28863998 24.2728091 148.72877884 24.26763153 C150.37696995 24.26629916 152.02516624 24.26792828 153.67335129 24.27259064 C155.98077727 24.27768391 158.28781749 24.26990574 160.59521484 24.25878906 C161.90743011 24.25719788 163.21964539 24.25560669 164.57162476 24.25396729 C167.83554776 24.0121823 170.0740294 23.41303932 173 22 C173.99 22.99 173.99 22.99 175 24 C177.6482837 24.21744746 180.19516802 24.31139994 182.84619141 24.31884766 C184.06094902 24.33391609 184.06094902 24.33391609 185.30024719 24.34928894 C187.98401156 24.38024404 190.66767564 24.3971901 193.3515625 24.4140625 C195.20959341 24.43276425 197.06761574 24.45233691 198.92562866 24.4727478 C203.82135979 24.52417996 208.71711848 24.56374621 213.61297607 24.60089111 C218.60663739 24.64086145 223.60018292 24.6919855 228.59375 24.7421875 C238.39576028 24.83907802 248.19781791 24.92241017 258 25 C258 17.08 258 9.16 258 1 C261.89392653 2.94696327 264.81792437 5.24010431 268.0625 8.0625 C269.21408076 9.05297113 270.36643871 10.04253928 271.51953125 11.03125 C272.09783691 11.52753906 272.67614258 12.02382813 273.27197266 12.53515625 C276.7732732 15.50319853 280.36760119 18.35734604 283.953125 21.22265625 C286 23 286 23 287 25 C286.26245117 26.85668945 286.26245117 26.85668945 285.04296875 29.11328125 C284.59501953 29.94279297 284.14707031 30.77230469 283.68554688 31.62695312 C283.19119141 32.51318359 282.69683594 33.39941406 282.1875 34.3125 C281.68412109 35.21806641 281.18074219 36.12363281 280.66210938 37.05664062 C272.49795208 51.4489129 261.67794676 63.36021647 250 75 C249.42378906 75.61101562 248.84757812 76.22203125 248.25390625 76.8515625 C239.14685996 86.40029002 228.29956376 94.08745811 217.2421875 101.20825195 C216.60152344 101.63195068 215.96085938 102.05564941 215.30078125 102.4921875 C214.73528564 102.85683105 214.16979004 103.22147461 213.5871582 103.59716797 C210.11741301 106.6639509 209.06776004 109.25740437 208.64697266 113.86889648 C208.63936376 115.36962043 208.64582151 116.87046138 208.6640625 118.37109375 C208.65155172 120.01367584 208.63851468 121.65625399 208.625 123.29882812 C208.62107091 125.87066626 208.62502624 128.4421149 208.63964844 131.01391602 C208.64824489 133.50855847 208.62649888 136.00159283 208.6015625 138.49609375 C208.61490631 139.2587706 208.62825012 140.02144745 208.64199829 140.80723572 C208.56346339 146.51737424 207.08521223 149.00383136 203 153 C199.69005287 154.65497356 196.00877 154.10084335 192.375 154.0625 C191.57320312 154.05798828 190.77140625 154.05347656 189.9453125 154.04882812 C187.96350994 154.03703168 185.98174567 154.01909605 184 154 C184.00523682 154.65516602 184.01047363 155.31033203 184.01586914 155.98535156 C184.06326218 163.12430321 184.06008393 170.26217266 184.02787781 177.40112305 C184.00537489 182.69268756 184.00211234 187.98378449 184.01464844 193.27539062 C184.02662246 199.3054995 184.01179846 205.33480797 183.96992779 211.36478043 C183.94722104 214.76794279 183.93686687 218.17015707 183.95559692 221.57336426 C183.97633374 225.45569993 183.94110327 229.33653323 183.90234375 233.21875 C183.91659393 234.38851379 183.93084412 235.55827759 183.94552612 236.76348877 C183.82263368 243.69004969 182.81109324 247.50826899 177.84132385 252.44909668 C176.11112074 253.90640564 174.32666382 255.23007747 172.5 256.5625 C171.675 257.366875 170.85 258.17125 170 259 C170.1883021 265.11197233 172.55533556 270.21958779 175 275.75 C175.72995153 277.43195126 176.45915094 279.11422919 177.1875 280.796875 C177.51105469 281.53260742 177.83460938 282.26833984 178.16796875 283.02636719 C181.36123446 290.60100334 180.47694406 299.12261635 179 307.0625 C177.65933272 314.31167953 176.92491078 321.82612011 179 329 C180.49126893 334.2912431 180.97243474 339.56932596 180 345 C178.14075809 348.02539364 175.85422892 349.92820449 173 352 C172.33226562 352.5053125 171.66453125 353.010625 170.9765625 353.53125 C169.3470242 354.72846181 167.67716807 355.87047865 166 357 C166.86182162 361.45815398 169.41409485 364.08004401 172.375 367.375 C177.68050556 373.28842807 181.68340486 378.29681425 181.37402344 386.60839844 C180.68326424 391.02528951 178.71529471 394.71525377 176.625 398.625 C176.17310303 399.49455322 175.72120605 400.36410645 175.25561523 401.26000977 C168.28167895 414.42547609 159.84176654 425.86207431 150 437 C149.29230469 437.81855469 148.58460938 438.63710938 147.85546875 439.48046875 C142.16072612 446.06239234 142.16072612 446.06239234 140 448 C139.34 448 138.68 448 138 448 C137.99902319 447.33498844 137.99804638 446.66997688 137.99703997 445.98481345 C137.93880359 406.59544934 137.8650339 367.20614184 137.77101372 327.81684618 C137.75974517 323.09030006 137.74860678 318.36375365 137.73754883 313.63720703 C137.7342433 312.22571541 137.7342433 312.22571541 137.730871 310.78570881 C137.69547142 295.53711704 137.67062232 280.28852533 137.64965298 265.03990766 C137.6279121 249.40048376 137.59487804 233.76111331 137.55129844 218.12173486 C137.52475215 208.46667992 137.50707873 198.81169163 137.50065396 189.156602 C137.49540916 182.54119879 137.47922289 175.92587953 137.45433434 169.31052127 C137.44028806 165.4903321 137.43116013 161.6702933 137.43499184 157.85007668 C137.43901557 153.71310244 137.42004758 149.5765573 137.39872742 145.43963623 C137.40357499 144.22563888 137.40842257 143.01164154 137.41341704 141.76085639 C137.4039605 140.65562259 137.39450396 139.55038879 137.38476086 138.41166306 C137.38286225 137.4562867 137.38096365 136.50091035 137.37900752 135.5165832 C136.92669419 132.51325461 136.14053718 131.13841346 134 129 C130.5 128.33333333 130.5 128.33333333 127 129 C124.00646524 131.99056475 123.62347984 134.26494654 123.61523914 138.41166306 C123.6057826 139.51689686 123.59632606 140.62213066 123.58658296 141.76085639 C123.59385432 143.58185241 123.59385432 143.58185241 123.60127258 145.43963623 C123.59462576 146.72937292 123.58797893 148.01910962 123.58113068 149.34792924 C123.56306915 152.93044493 123.56366682 156.51275373 123.56726015 160.09530425 C123.56788293 163.9576083 123.55127395 167.81984227 123.53674316 171.68211365 C123.51392965 178.37462631 123.50206732 185.06708683 123.49761391 191.75963593 C123.49115922 201.43595936 123.46823387 211.11218842 123.44127061 220.78847387 C123.39797413 236.48706177 123.36802373 252.1856457 123.34643555 267.88427734 C123.32543442 283.13527375 123.29816691 298.38623768 123.26245117 313.63720703 C123.26025235 314.57705974 123.25805352 315.51691246 123.25578807 316.48524556 C123.24471863 321.20014571 123.23352578 325.91504556 123.22227156 330.62994528 C123.12904596 369.75326855 123.05746677 408.87660882 123 448 C121.87452146 447.03901806 120.74956562 446.07742394 119.62483215 445.11557007 C118.99831662 444.58014776 118.37180109 444.04472546 117.72630024 443.49307823 C105.99500352 433.34667185 97.10094018 420.43621194 89.4375 407.0625 C88.94934814 406.21155762 88.46119629 405.36061523 87.95825195 404.48388672 C78.70904122 387.88919256 78.70904122 387.88919256 80 380 C82.64569948 373.2331148 87.18431345 368.39742792 92.3046875 363.359375 C94.23435917 361.14027268 94.23435917 361.14027268 94.06640625 358.4609375 C92.66673338 355.23092317 90.89048073 353.94425419 88.0625 351.875 C85.03399465 349.63521331 83.10515375 348.15773062 81 345 C80.3315145 338.27582232 81.0552472 332.44199363 83 326 C83.50563736 321.02141677 82.93726442 316.3938592 82 311.5 C79.89151373 299.53663224 79.68331511 288.11670478 85 277 C86.08466986 274.70896562 87.16796238 272.41727874 88.25 270.125 C88.77078125 269.07570313 89.2915625 268.02640625 89.828125 266.9453125 C91.04641948 263.88333237 91.68196505 262.22621927 91 259 C88.65776993 256.56599 88.65776993 256.56599 85.625 254.4375 C79.34115375 249.75303064 79.34115375 249.75303064 78 246 C77.75981005 243.02686771 77.62690295 240.14042099 77.5859375 237.1640625 C77.56652603 236.2723938 77.54711456 235.3807251 77.52711487 234.46203613 C77.46633672 231.5164558 77.42022838 228.57085713 77.375 225.625 C77.33699736 223.58056029 77.29866279 221.53612673 77.26000977 219.49169922 C76.87373703 197.66268006 76.90080776 175.83144822 77 154 C75.75863281 154.04640625 74.51726562 154.0928125 73.23828125 154.140625 C71.59637829 154.17815421 69.95444923 154.21455314 68.3125 154.25 C67.49587891 154.28351563 66.67925781 154.31703125 65.83789062 154.3515625 C61.73925176 154.41793722 59.56291539 154.34080776 55.98046875 152.171875 C52.38278786 148.22648925 52.77563248 143.88914819 52.60546875 138.82421875 C52.53667031 137.17509398 52.46698068 135.52600619 52.39648438 133.87695312 C52.28931085 131.2834519 52.18759089 128.69023328 52.10131836 126.09594727 C52.01553566 123.58769925 51.90612139 121.08136213 51.79296875 118.57421875 C51.77300339 117.80526779 51.75303802 117.03631683 51.73246765 116.24406433 C51.47600286 111.11197434 50.33536783 108.10212802 47 104 C44.82092562 102.27851228 44.82092562 102.27851228 42.3125 100.9375 C29.38581196 93.02459334 18.19330427 83.57102677 7.5 72.875 C6.5927417 71.96935303 5.6854834 71.06370605 4.75073242 70.13061523 C-3.34032478 61.90573553 -10.85195239 53.22265529 -17.1875 43.5625 C-17.80794189 42.62651978 -17.80794189 42.62651978 -18.44091797 41.67163086 C-22.12447959 36.01108546 -25.18601676 30.1427195 -28 24 C-20.35794134 17.43493311 -12.70506028 10.88390848 -5.0012207 4.39135742 C-2.43759678 2.26543414 -2.43759678 2.26543414 0 0 Z " fill="#FCFCFD" transform="translate(381,395)"/>
<path d="M0 0 C1.57316179 -0.00420939 3.14631798 -0.01153881 4.7194519 -0.02180481 C7.99647425 -0.03196558 11.27074086 -0.00698112 14.54736328 0.04418945 C18.72252205 0.10688106 22.89204359 0.08425882 27.06721687 0.03566456 C30.30894781 0.0068675 33.54937763 0.02180688 36.79107285 0.04968834 C38.32905362 0.0581308 39.86716555 0.05379139 41.40506363 0.03574562 C49.15139135 -0.03030516 55.11611362 0.20809185 61.13623047 5.61987305 C62.57640811 7.16923105 64.00787007 8.72674493 65.4296875 10.29296875 C67.0736979 11.65413933 68.73473198 12.99578668 70.4296875 14.29296875 C73.83262844 12.93738294 75.99074161 10.82796695 78.56909275 8.27851295 C86.40835746 0.77357141 93.27300928 -0.34959633 103.80859375 -0.16796875 C105.35312232 -0.1754051 106.89763821 -0.18610266 108.44212341 -0.19985962 C111.65791029 -0.21595347 114.87030559 -0.19293456 118.08569336 -0.14111328 C122.17517434 -0.07835806 126.25672559 -0.11460273 130.3459177 -0.18041039 C133.52868239 -0.22046726 136.70961413 -0.20737754 139.89243889 -0.17900467 C141.39809081 -0.17175232 142.90391831 -0.18036731 144.4093647 -0.20627975 C152.93049205 -0.32084336 158.97056538 0.68679675 165.22583008 6.68261719 C167.01557743 8.51095779 168.71947849 10.38752165 170.4296875 12.29296875 C171.58322079 13.3853516 172.74906503 14.465225 173.9375 15.51953125 C175.7094179 17.14334855 177.48021928 18.76838491 179.25 20.39453125 C181.27982392 22.32228988 181.27982392 22.32228988 183.4296875 23.29296875 C183.65678418 71.68552457 182.73160444 119.9527131 180.4296875 168.29296875 C162.6096875 168.29296875 144.7896875 168.29296875 126.4296875 168.29296875 C126.40216138 156.56378293 126.37865723 144.83467087 126.3671875 133.10546875 C126.36590347 131.80169973 126.36590347 131.80169973 126.36459351 130.47159195 C126.33786095 99.73267486 126.67323913 69.0236839 127.4296875 38.29296875 C117.8596875 38.29296875 108.2896875 38.29296875 98.4296875 38.29296875 C98.4296875 81.19296875 98.4296875 124.09296875 98.4296875 168.29296875 C80.2796875 168.29296875 62.1296875 168.29296875 43.4296875 168.29296875 C43.4296875 125.39296875 43.4296875 82.49296875 43.4296875 38.29296875 C34.1896875 38.29296875 24.9496875 38.29296875 15.4296875 38.29296875 C15.45998047 41.34281006 15.49027344 44.39265137 15.52148438 47.53491211 C15.6223958 57.71278528 15.72193736 67.89067153 15.82083893 78.06856441 C15.88073037 84.22776368 15.9410559 90.38695801 16.00244141 96.54614258 C16.06187697 102.51139382 16.12008364 108.476656 16.17750549 114.44192696 C16.19940634 116.69600398 16.22171964 118.95007704 16.24449158 121.20414543 C16.25529251 122.27582026 16.26609344 123.34749508 16.27722168 124.4516449 C16.28670586 125.37993827 16.29619003 126.30823164 16.30596161 127.26465511 C16.42894035 140.94374417 16.4296875 154.61099265 16.4296875 168.29296875 C-1.7203125 168.29296875 -19.8703125 168.29296875 -38.5703125 168.29296875 C-39.27890146 148.52378228 -39.27890146 148.52378228 -39.58789062 139.8359375 C-39.79549905 133.99883151 -40.00335813 128.16173555 -40.21313477 122.32470703 C-40.41577603 116.68397393 -40.61673876 111.04318288 -40.81640625 105.40234375 C-40.84941141 104.47174133 -40.88241657 103.54113892 -40.91642189 102.58233643 C-41.26529379 92.70159352 -41.59494019 82.82093061 -41.8581543 72.9375 C-41.88007182 72.11716404 -41.90198935 71.29682808 -41.92457104 70.45163345 C-42.02546047 66.63548509 -42.1220737 62.81929324 -42.2118988 59.00286865 C-42.39523901 51.56144491 -42.72940493 44.15636271 -43.32084656 36.7350769 C-44.0992937 24.48538234 -44.0992937 24.48538234 -39.87109375 19.51953125 C-37.11894323 16.90415049 -34.15689165 14.85611413 -30.90177917 12.91746521 C-28.43759314 11.29683049 -28.43759314 11.29683049 -26.11434937 8.88160706 C-17.91522275 0.95701182 -11.1340739 -0.19308274 0 0 Z " fill="#FBFBFC" transform="translate(439.5703125,232.70703125)"/>
<path d="M0 0 C0.87574677 -0.01197418 1.75149353 -0.02394836 2.65377808 -0.0362854 C5.53209255 -0.06833583 8.40889136 -0.06366894 11.28735352 -0.05566406 C13.29843156 -0.06411862 15.30950494 -0.07376029 17.3205719 -0.08453369 C21.52948255 -0.10090315 25.73786696 -0.09823489 29.94677734 -0.08300781 C35.32846782 -0.0657223 40.70820774 -0.10287458 46.08961391 -0.15526962 C50.24111299 -0.18842045 54.3921459 -0.18894011 58.54374886 -0.18012238 C60.52721417 -0.18048128 62.51070959 -0.19171272 64.49404716 -0.21422577 C81.92457476 -0.38583481 81.92457476 -0.38583481 87.02270508 4.03222656 C88.03680456 5.22384207 89.02423587 6.43886037 89.97875977 7.67871094 C91.2027845 8.77164925 92.44681364 9.84295522 93.71704102 10.88183594 C94.30936523 11.38714844 94.90168945 11.89246094 95.51196289 12.41308594 C96.71719267 13.43971416 97.92293764 14.46573782 99.12915039 15.49121094 C99.7150293 15.99136719 100.3009082 16.49152344 100.90454102 17.00683594 C101.68438354 17.67054199 101.68438354 17.67054199 102.47998047 18.34765625 C103.22187622 19.00652832 103.22187622 19.00652832 103.97875977 19.67871094 C104.53112305 20.09193604 105.08348633 20.50516113 105.65258789 20.9309082 C107.70203113 23.63193254 107.31550164 25.97408142 107.27172852 29.31542969 C107.26423584 30.48549561 107.25674316 31.65556152 107.24902344 32.86108398 C107.22171143 34.34777588 107.19439941 35.83446777 107.16625977 37.36621094 C107.10438477 42.08933594 107.04250977 46.81246094 106.97875977 51.67871094 C88.49875977 51.67871094 70.01875977 51.67871094 50.97875977 51.67871094 C50.97875977 47.05871094 50.97875977 42.43871094 50.97875977 37.67871094 C41.07875977 37.67871094 31.17875977 37.67871094 20.97875977 37.67871094 C20.97875977 42.29871094 20.97875977 46.91871094 20.97875977 51.67871094 C20.85685198 56.18151773 20.7167721 60.67826024 20.54125977 65.17871094 C20.50194336 66.28601563 20.46262695 67.39332031 20.42211914 68.53417969 C20.20781357 74.21162873 19.90696728 79.86899983 19.47485352 85.53417969 C18.85398048 93.85607713 18.6408517 102.18401667 18.42651367 110.52416992 C18.37413045 112.5197783 18.31710783 114.51526315 18.26000977 116.51074219 C18.2297168 117.67323486 18.19942383 118.83572754 18.16821289 120.03344727 C17.94847419 124.26143505 17.44629307 128.47091123 16.97875977 132.67871094 C27.86875977 132.67871094 38.75875977 132.67871094 49.97875977 132.67871094 C49.97875977 123.10871094 49.97875977 113.53871094 49.97875977 103.67871094 C45.68875977 103.67871094 41.39875977 103.67871094 36.97875977 103.67871094 C36.9508333 101.19946162 36.93149714 98.72054916 36.91625977 96.24121094 C36.90788086 95.57283203 36.89950195 94.90445313 36.89086914 94.21582031 C36.85360302 85.98000668 37.49154989 77.96127886 37.97875977 69.67871094 C60.08875977 69.67871094 82.19875977 69.67871094 104.97875977 69.67871094 C104.97875977 102.72331446 104.97875977 102.72331446 104.04125977 114.30371094 C103.23036814 125.43059132 102.64732082 136.53717807 102.32080078 147.68896484 C102.28913818 148.7116748 102.25747559 149.73438477 102.22485352 150.78808594 C102.20092529 151.66432617 102.17699707 152.54056641 102.15234375 153.44335938 C101.99189748 156.4338432 101.74322003 159.39916059 101.46791077 162.38092041 C101.37666459 163.37266392 101.28541842 164.36440742 101.1914072 165.38620377 C101.12123355 166.14273113 101.05105989 166.8992585 100.97875977 167.67871094 C86.80958264 167.88948911 72.64065056 168.04732033 58.47022438 168.14502048 C51.88967002 168.19192078 45.3101714 168.25549992 38.73022461 168.35766602 C32.37589575 168.45570759 26.02257999 168.5093224 19.66755295 168.53260612 C17.2474104 168.549191 14.82732115 168.58157892 12.40761185 168.63028145 C-8.94610119 169.04284665 -8.94610119 169.04284665 -15.39233398 163.28637695 C-16.64599482 161.78620818 -17.86383709 160.25433456 -19.02124023 158.67871094 C-20.58400895 157.2293786 -20.58400895 157.2293786 -22.12280273 156.07714844 C-24.76686359 153.95698818 -27.40523517 151.83349197 -30.02124023 149.67871094 C-31.01485817 149.03894821 -31.01485817 149.03894821 -32.02854919 148.38626099 C-35.47403254 145.9277026 -37.69396592 144.07076961 -38.6854248 139.85360718 C-38.84980733 136.3384761 -38.75992256 132.91199463 -38.57983398 129.39746094 C-38.52706819 127.38642163 -38.47431581 125.3753819 -38.42216778 123.36432648 C-38.35967221 121.24108609 -38.27752246 119.11941273 -38.18988037 116.99707031 C-38.0161682 112.735444 -37.9100714 108.47404384 -37.81860352 104.20996094 C-37.6414983 96.26471582 -37.4033943 88.32211632 -37.15240479 80.37890625 C-37.01454091 75.96138005 -36.88569713 71.5435773 -36.7553463 67.12582397 C-36.64893142 63.56378449 -36.53561081 60.00221728 -36.40664673 56.44091797 C-36.18451392 50.2704007 -35.99941535 44.11183507 -36.01293945 37.93652344 C-35.99740273 36.41967957 -35.99740273 36.41967957 -35.98155212 34.87219238 C-35.96448185 33.05149301 -35.97638576 31.23014036 -36.02589417 29.41003418 C-35.96110267 25.68832427 -35.75064427 23.53193548 -33.28166199 20.64382935 C-31.26325184 18.86582805 -29.19117637 17.2657334 -27.02124023 15.67871094 C-24.27987636 13.1667042 -21.5523583 10.64079104 -18.82983398 8.10839844 C-17.90299805 7.30660156 -16.97616211 6.50480469 -16.02124023 5.67871094 C-15.53007689 5.24734707 -15.03891356 4.8159832 -14.53286648 4.3715477 C-9.74362572 0.52952203 -6.0363022 -0.05180605 0 0 Z " fill="#FBFCFC" transform="translate(683.021240234375,233.3212890625)"/>
<path d="M0 0 C36.3 0 72.6 0 110 0 C110.65988543 7.25873971 111.21452635 14.42072391 111.48071289 21.69018555 C111.5198732 22.69687286 111.55903351 23.70356018 111.59938049 24.74075317 C111.72682235 28.03930093 111.84995674 31.33799142 111.97265625 34.63671875 C112.06078291 36.96247321 112.14903699 39.28822284 112.2374115 41.6139679 C112.42175443 46.48484118 112.6038269 51.35579308 112.78442383 56.22680664 C113.01357802 62.39993175 113.2494331 68.57277946 113.48720646 74.74557781 C113.6714133 79.55286526 113.8513738 84.36030524 114.03021049 89.16779518 C114.11530829 91.43949491 114.20177971 93.71114369 114.28978157 95.98273277 C114.53260036 102.27737513 114.74545043 108.57162617 114.91191483 114.8687706 C114.97247051 117.02138862 115.04254689 119.17375326 115.12055588 121.32580948 C115.23554713 124.61138076 115.31403764 127.8960689 115.38452148 131.18286133 C115.42587502 132.1759238 115.46722857 133.16898626 115.50983524 134.19214153 C115.57323083 138.83838841 115.49278794 142.02818372 112.52650452 145.74613953 C110.00485708 148.13664726 107.58453978 150.04887131 104.67236328 151.90283203 C101.97575246 153.6719662 99.58105942 155.79055892 97.125 157.875 C96.28195312 158.55304688 95.43890625 159.23109375 94.5703125 159.9296875 C91.91349817 162.0046638 91.91349817 162.0046638 89.33850098 164.58201599 C85.83136035 167.48906614 82.45260114 167.75267882 78.01367188 167.75805664 C76.8464006 167.78806511 76.8464006 167.78806511 75.6555481 167.81867981 C73.09294141 167.87617146 70.53193962 167.89585484 67.96875 167.91015625 C66.17239888 167.93132967 64.37605283 167.95293819 62.57971191 167.97496033 C58.81376035 168.01388601 55.0483669 168.03117291 51.28222656 168.03637695 C46.49049604 168.04700186 41.70375052 168.13577703 36.91338348 168.24463749 C33.19993221 168.31580924 29.48764726 168.33174953 25.77357483 168.33321953 C24.00979447 168.34272135 22.24599414 168.37166188 20.4828949 168.42158699 C10.51529795 168.68059441 3.72792895 168.01420515 -3.88867188 161.15405273 C-5.49553202 159.60385988 -7.0596017 158.02651778 -8.6010437 156.41140556 C-10.53699417 154.45822714 -12.67112652 152.82605329 -14.875 151.1875 C-15.56464844 150.63964844 -16.25429687 150.09179688 -16.96484375 149.52734375 C-18.98066324 147.95220345 -18.98066324 147.95220345 -21.25390625 146.69140625 C-24.36641296 144.63681774 -26.49315042 142.82970792 -27.51953125 139.12451172 C-28.38550818 134.28838047 -28.66579386 129.41880195 -28.88525391 124.51660156 C-28.99270072 122.16008721 -29.14823834 119.81319175 -29.32421875 117.4609375 C-30.09026191 106.25879989 -30 95.27177265 -30 84 C-11.85 84 6.3 84 25 84 C26.125 100.875 26.125 100.875 26.09765625 107.68359375 C26.09515869 108.98611084 26.09266113 110.28862793 26.09008789 111.63061523 C26.08098389 113.21688721 26.07187988 114.80315918 26.0625 116.4375 C26.041875 121.573125 26.02125 126.70875 26 132 C37.22 132 48.44 132 60 132 C59.79503906 128.3803125 59.59007812 124.760625 59.37890625 121.03125 C59.17658411 117.43654675 58.97486213 113.84181027 58.77319336 110.24707031 C58.63514523 107.79195704 58.49649554 105.33687749 58.35717773 102.88183594 C55.75534922 57.00699679 55.75534922 57.00699679 56 37 C55.31317642 37.00222061 54.62635284 37.00444122 53.91871643 37.00672913 C46.79794838 37.02877895 39.67718996 37.04390533 32.55639648 37.05493164 C29.89558519 37.05997383 27.23477668 37.06680736 24.57397461 37.07543945 C20.75894484 37.08751009 16.94395156 37.09322929 13.12890625 37.09765625 C11.33206139 37.10539818 11.33206139 37.10539818 9.49891663 37.11329651 C7.84731789 37.11340981 7.84731789 37.11340981 6.16235352 37.11352539 C4.7000808 37.11685631 4.7000808 37.11685631 3.20826721 37.12025452 C1 37 1 37 0 36 C0 24.12 0 12.24 0 0 Z " fill="#FBFCFC" transform="translate(261,234)"/>
<path d="M0 0 C3.2826932 1.49076434 5.93077441 3.38620321 8.75 5.625 C9.94882813 6.57246094 9.94882813 6.57246094 11.171875 7.5390625 C11.77515625 8.02117187 12.3784375 8.50328125 13 9 C12.67 9.66 12.34 10.32 12 11 C8.625 11.1875 8.625 11.1875 5 11 C3.19070225 8.28605338 2.73021222 7.01212543 2 4 C1.36345658 2.6520257 0.70394612 1.31403276 0 0 Z " fill="#38477C" transform="translate(239,380)"/>
<path d="M0 0 C1.24265625 0.03609375 2.4853125 0.0721875 3.765625 0.109375 C6.80538029 0.20290593 9.83849678 0.33382639 12.875 0.5 C12.875 0.83 12.875 1.16 12.875 1.5 C12.14385986 1.51458252 11.41271973 1.52916504 10.65942383 1.54418945 C7.33492629 1.6188291 4.01141533 1.71543801 0.6875 1.8125 C-0.46298828 1.83505859 -1.61347656 1.85761719 -2.79882812 1.88085938 C-3.91064453 1.91630859 -5.02246094 1.95175781 -6.16796875 1.98828125 C-7.69973755 2.02755737 -7.69973755 2.02755737 -9.26245117 2.06762695 C-14.4571834 2.85226412 -17.63236442 5.74865067 -21.125 9.5 C-22.115 9.17 -23.105 8.84 -24.125 8.5 C-16.49073377 0.67834924 -10.71348494 -0.59646811 0 0 Z " fill="#EFF6FE" transform="translate(688.125,233.5)"/>
<path d="M0 0 C0.33 0 0.66 0 1 0 C-0.33408072 11.43497758 -0.33408072 11.43497758 -3.0625 13.75 C-3.701875 14.1625 -4.34125 14.575 -5 15 C-5.66 14.67 -6.32 14.34 -7 14 C-4.69 9.38 -2.38 4.76 0 0 Z " fill="#3D4D7B" transform="translate(559,788)"/>
<path d="M0 0 C0 3.69349436 -0.88153908 5.00493457 -3 8 C-5.6875 10.3125 -5.6875 10.3125 -8 12 C-8.66 11.34 -9.32 10.68 -10 10 C-9.278125 9.46375 -8.55625 8.9275 -7.8125 8.375 C-4.752158 5.7907112 -2.48779989 3.12751986 0 0 Z " fill="#414E7D" transform="translate(639,461)"/>
<path d="M0 0 C1.33332095 2.6666419 0.67102033 4.16680303 0 7 C-2.98241547 7.77321882 -5.97580475 8.41196203 -9 9 C-6 6 -3 3 0 0 Z " fill="#384879" transform="translate(628,472)"/>
<path d="M0 0 C0.99 0.33 1.98 0.66 3 1 C0.66666667 3.33333333 -1.66666667 5.66666667 -4 8 C-6.125 7.625 -6.125 7.625 -8 7 C-6.74057614 5.80040625 -5.46704714 4.61560557 -4.1875 3.4375 C-3.12595703 2.44556641 -3.12595703 2.44556641 -2.04296875 1.43359375 C-1.36878906 0.96050781 -0.69460938 0.48742187 0 0 Z " fill="#374674" transform="translate(558,742)"/>
<path d="M0 0 C3 0 3 0 5 1.875 C5.66 2.57625 6.32 3.2775 7 4 C7.99 4.66 8.98 5.32 10 6 C9.67 6.99 9.34 7.98 9 9 C7.68103535 8.07161713 6.37001311 7.13194268 5.0625 6.1875 C4.33160156 5.66542969 3.60070312 5.14335937 2.84765625 4.60546875 C1 3 1 3 0 0 Z " fill="#364471" transform="translate(781,247)"/>
<path d="M0 0 C-1.12530428 3.37591285 -2.16053617 4.28446799 -4.8125 6.5625 C-5.49957031 7.16191406 -6.18664062 7.76132812 -6.89453125 8.37890625 C-8.86555845 9.89648749 -10.73964261 10.97902958 -13 12 C-2.93659942 0 -2.93659942 0 0 0 Z " fill="#293666" transform="translate(532,833)"/>
<path d="M0 0 C4.42700422 1.39134418 6.99413292 3.47884142 10 7 C10 7.99 10 8.98 10 10 C8.7010161 9.09373216 7.41106833 8.17450463 6.125 7.25 C5.40570312 6.73953125 4.68640625 6.2290625 3.9453125 5.703125 C1.91429435 3.92496453 1.02144988 2.47298393 0 0 Z " fill="#37436E" transform="translate(598,233)"/>
<path d="M0 0 C0.33 0.66 0.66 1.32 1 2 C-1.38957269 5.24299151 -3.2047869 7.50902342 -7 9 C-7.33 8.01 -7.66 7.02 -8 6 C-5.36 4.02 -2.72 2.04 0 0 Z " fill="#364578" transform="translate(618,481)"/>
<path d="M0 0 C0.99 0 1.98 0 3 0 C3 0.66 3 1.32 3 2 C3.99 2 4.98 2 6 2 C6 2.99 6 3.98 6 5 C8.475 5.99 8.475 5.99 11 7 C10.01 7.66 9.02 8.32 8 9 C6.66368764 7.6905332 5.33102075 6.37734515 4 5.0625 C3.2575 4.33160156 2.515 3.60070312 1.75 2.84765625 C0 1 0 1 0 0 Z " fill="#36446E" transform="translate(766,234)"/>
<path d="M0 0 C0.33 0.99 0.66 1.98 1 3 C0.195625 3.61875 -0.60875 4.2375 -1.4375 4.875 C-4.03874519 6.74164041 -4.03874519 6.74164041 -5 9 C-6.32 8.67 -7.64 8.34 -9 8 C-6.03 5.36 -3.06 2.72 0 0 Z " fill="#3B4976" transform="translate(560,645)"/>
<path d="M0 0 C1.32 0.33 2.64 0.66 4 1 C0.535 3.97 0.535 3.97 -3 7 C-2.25 2.25 -2.25 2.25 0 0 Z " fill="#3A4670" transform="translate(652,249)"/>
<path d="M0 0 C0.66 0.33 1.32 0.66 2 1 C0.02 3.31 -1.96 5.62 -4 8 C-5.32 7.67 -6.64 7.34 -8 7 C-5.36 4.69 -2.72 2.38 0 0 Z " fill="#DBE2EE" transform="translate(672,235)"/>
<path d="M0 0 C0.33 0 0.66 0 1 0 C1 1.65 1 3.3 1 5 C-0.8125 6.0625 -0.8125 6.0625 -3 7 C-3.99 6.67 -4.98 6.34 -6 6 C-5.195625 5.38125 -4.39125 4.7625 -3.5625 4.125 C-0.96125481 2.25835959 -0.96125481 2.25835959 0 0 Z " fill="#3D4C77" transform="translate(588,542)"/>
<path d="M0 0 C0.66 0.33 1.32 0.66 2 1 C0.29374499 3.78388975 -0.47626739 4.85384206 -3.6875 5.75 C-4.8321875 5.87375 -4.8321875 5.87375 -6 6 C-2.25 1.125 -2.25 1.125 0 0 Z " fill="#3A4876" transform="translate(372,379)"/>
<path d="M0 0 C0.33 0 0.66 0 1 0 C1.04898438 0.61488281 1.09796875 1.22976563 1.1484375 1.86328125 C1.22320312 2.67152344 1.29796875 3.47976563 1.375 4.3125 C1.44460937 5.11300781 1.51421875 5.91351563 1.5859375 6.73828125 C1.89564426 9.27224441 1.89564426 9.27224441 4 12 C3.01 12 2.02 12 1 12 C0 11 0 11 -0.09765625 8.49609375 C-0.08605469 7.48675781 -0.07445312 6.47742188 -0.0625 5.4375 C-0.05347656 4.42558594 -0.04445312 3.41367187 -0.03515625 2.37109375 C-0.02355469 1.58863281 -0.01195312 0.80617188 0 0 Z " fill="#677399" transform="translate(233,366)"/>
<path d="M0 0 C2.5 2.3125 2.5 2.3125 5 5 C5 5.99 5 6.98 5 8 C4.34 8 3.68 8 3 8 C0 2.25 0 2.25 0 0 Z " fill="#45507E" transform="translate(488,827)"/>
<path d="M0 0 C3.37503669 1.1858237 5.64722731 2.27573689 8 5 C6.35 5 4.7 5 3 5 C2.67 4.01 2.34 3.02 2 2 C1.34 2 0.68 2 0 2 C0 1.34 0 0.68 0 0 Z " fill="#374575" transform="translate(412,489)"/>
<path d="M0 0 C0.66 0.66 1.32 1.32 2 2 C0.35 3.32 -1.3 4.64 -3 6 C-3.66 5.34 -4.32 4.68 -5 4 C-3.35 2.68 -1.7 1.36 0 0 Z " fill="#384679" transform="translate(359,390)"/>
</svg>
