<?xml version="1.0" encoding="UTF-8"?>
<svg version="1.1" xmlns="http://www.w3.org/2000/svg" width="1024" height="1024">
<path d="M0 0 C337.92 0 675.84 0 1024 0 C1024 337.92 1024 675.84 1024 1024 C686.08 1024 348.16 1024 0 1024 C0 686.08 0 348.16 0 0 Z " fill="#243970" transform="translate(0,0)"/>
<path d="M0 0 C0 8.58 0 17.16 0 26 C2.58424805 25.96970703 5.16849609 25.93941406 7.83105469 25.90820312 C16.36462535 25.80820524 24.898199 25.70846366 33.43177414 25.60884857 C38.60621026 25.54843787 43.78064533 25.48794056 48.95507812 25.42724609 C53.94766253 25.36868783 58.94024954 25.31035604 63.93283844 25.25218201 C65.83863672 25.22993555 67.74443405 25.20760716 69.65023041 25.18519592 C72.31727353 25.15384671 74.98431988 25.12278747 77.65136719 25.09179688 C78.8360408 25.07777077 78.8360408 25.07777077 80.04464722 25.0634613 C110.35640175 24.71365715 140.68615829 25 171 25 C171.33 24.34 171.66 23.68 172 23 C176.75 24.875 176.75 24.875 179 26 C181.59273192 26.1223236 184.16038886 26.1856668 186.75439453 26.20532227 C187.55447937 26.21522186 188.35456421 26.22512146 189.17889404 26.23532104 C191.83016983 26.26697262 194.48146356 26.29170789 197.1328125 26.31640625 C198.96841911 26.33697262 200.80402096 26.35796901 202.63961792 26.37937927 C207.47617739 26.43463268 212.31277983 26.48402752 217.14941406 26.53222656 C222.0827213 26.58241774 227.01596596 26.63811623 231.94921875 26.69335938 C241.63276109 26.80098094 251.31635643 26.90190824 261 27 C261.33 18.42 261.66 9.84 262 1 C265.15364051 2.57682026 266.69023791 3.44074899 269.06640625 5.7578125 C269.62956543 6.29768799 270.19272461 6.83756348 270.77294922 7.39379883 C271.36350098 7.96509521 271.95405273 8.5363916 272.5625 9.125 C278.3807277 14.65561429 284.33747849 19.49939873 291 24 C289.48934024 29.39399419 286.97963554 33.77519023 284.0625 38.5 C283.57668457 39.28955078 283.09086914 40.07910156 282.59033203 40.89257812 C275.53082181 52.16051136 267.14824175 62.36346905 258 72 C257.50161621 72.53093262 257.00323242 73.06186523 256.48974609 73.60888672 C245.22635937 85.53858673 233.01877488 95.03980526 218.70703125 103.05078125 C215.42184053 105.41630819 213.95089867 107.44475061 212 111 C211.63124326 113.87922947 211.46426921 116.38097332 211.49609375 119.25 C211.48667252 120.02633789 211.47725128 120.80267578 211.46754456 121.60253906 C211.43902076 124.06863136 211.43581145 126.53375657 211.4375 129 C211.43388189 131.46610159 211.42424348 133.93150426 211.39674377 136.39746094 C211.38007063 137.92666869 211.37698857 139.4561062 211.38975525 140.98535156 C211.34310654 145.7355343 210.65389964 149.03707495 208 153 C203.76728622 156.34861029 199.87321664 156.36823543 194.6875 156.1875 C193.94693359 156.17396484 193.20636719 156.16042969 192.44335938 156.14648438 C190.62858925 156.11135979 188.81419712 156.05755972 187 156 C186.99857498 157.17240234 186.99714996 158.34480469 186.99568176 159.55273438 C186.97899159 170.61697277 186.93615596 181.68084432 186.86790943 192.74488831 C186.83366054 198.4326807 186.80853265 204.12020508 186.80444336 209.80810547 C186.80015601 215.30023182 186.77165624 220.79175379 186.72656822 226.28369141 C186.71360732 228.37594072 186.70928053 230.4682624 186.71384621 232.56054688 C186.71876207 235.49805463 186.69261536 238.43380268 186.65942383 241.37109375 C186.66804947 242.2306517 186.67667511 243.09020966 186.68556213 243.97581482 C186.54762541 251.28741541 183.83349654 256.07104879 178.796875 261.27734375 C178.12140625 261.82519531 177.4459375 262.37304688 176.75 262.9375 C176.06421875 263.50339844 175.3784375 264.06929687 174.671875 264.65234375 C174.12015625 265.09707031 173.5684375 265.54179688 173 266 C172.67 266.33 172.34 266.66 172 267 C172.1831184 271.9441968 173.12669051 275.59553758 175.25 280.0625 C182.52641472 295.42146285 184.33315268 307.88022605 181.453125 324.76953125 C180.35074525 332.62873863 180.5765314 340.07449653 182.54296875 347.7421875 C183.59595472 352.9441182 184.09140571 358.59514397 181.8671875 363.49609375 C179.5546591 366.59720401 176.8186186 368.92247637 173.8125 371.3125 C172.97428711 371.9940918 172.97428711 371.9940918 172.11914062 372.68945312 C170.75163144 373.79982383 169.37656796 374.90087985 168 376 C168.45758694 380.82709355 170.82900826 383.75554221 173.8125 387.375 C179.78432476 394.70605066 183.90848906 400.49935212 183.5703125 410.3515625 C182.45638694 417.47763424 179.29712495 423.64659418 176 430 C175.66822754 430.64839844 175.33645508 431.29679687 174.99462891 431.96484375 C170.65988968 440.32725188 165.66086772 448.20938112 160.375 456 C159.84890137 456.77706299 159.32280273 457.55412598 158.78076172 458.35473633 C155.64858965 462.88445143 152.31036828 467.08952354 148.62451172 471.18188477 C146.45636522 473.60842323 144.40857699 476.12537838 142.359375 478.65234375 C141 480 141 480 138 481 C137.99940291 480.2697731 137.99880582 479.5395462 137.99819064 478.78719121 C137.96231578 435.53150301 137.90570623 392.27588472 137.82207905 349.02026113 C137.8120613 343.82934429 137.80221722 338.63842714 137.79248047 333.44750977 C137.7905391 332.41406861 137.78859772 331.38062745 137.78659752 330.31586989 C137.75555571 313.57094741 137.73859079 296.82603865 137.72680578 280.08109281 C137.71440551 262.90597099 137.68692958 245.73092128 137.64538693 228.55584496 C137.6202193 217.95338683 137.6068851 207.35104823 137.60857043 196.7485598 C137.60860013 189.4832364 137.59401871 182.218035 137.56783572 174.95275912 C137.55315245 170.75773647 137.54501858 166.56296399 137.55419731 162.36791992 C137.5624548 158.52907149 137.55241131 154.6907268 137.52766338 150.85195329 C137.52195678 149.4615751 137.5230306 148.07114952 137.53148755 146.68078534 C137.54198559 144.79348604 137.52558701 142.90609413 137.50780869 141.01884937 C137.50553036 139.44509846 137.50553036 139.44509846 137.50320601 137.83955461 C136.86434459 134.23450645 135.60919354 132.53393968 133 130 C129.40528996 129.75161619 129.40528996 129.75161619 126 131 C122.87916179 134.13578634 122.62310163 136.54638195 122.61523914 140.88018417 C122.6057826 142.08991984 122.59632606 143.29965551 122.58658296 144.54604983 C122.59121281 145.89021825 122.59611931 147.23438573 122.60127258 148.57855225 C122.5958349 150.00506603 122.58908409 151.43157531 122.58113068 152.85807729 C122.56306131 156.78263516 122.56366779 160.70700424 122.56726015 164.63159394 C122.56788273 168.86199663 122.55127586 173.09233527 122.53674316 177.32270813 C122.51392578 184.65364807 122.50206665 191.9845404 122.49761391 199.31551361 C122.49116018 209.91490591 122.46823652 220.51421203 122.44127061 231.11356965 C122.39797037 248.30958771 122.36802212 265.50560214 122.34643555 282.70166016 C122.32543555 299.40773296 122.29816902 316.11377612 122.26245117 332.81982422 C122.26025235 333.8492868 122.25805352 334.87874938 122.25578807 335.9394078 C122.24471866 341.10383007 122.2335258 346.26825206 122.22227156 351.43267393 C122.12904064 394.28842313 122.05746392 437.14418893 122 480 C112.09829093 475.18943766 106.13218774 464.77994079 100 456 C99.5457666 455.35804688 99.0915332 454.71609375 98.62353516 454.0546875 C92.4084203 445.19708421 87.16435767 435.91917743 82.3125 426.25 C81.51791382 424.72463623 81.51791382 424.72463623 80.70727539 423.16845703 C77.1520819 415.84063425 75.68483622 409.13795237 77 401 C80.28318919 393.8982389 85.40399324 388.07912695 90.59375 382.2890625 C92.19996816 380.0955307 92.19996816 380.0955307 92.08984375 377.5234375 C90.57783077 374.02250422 88.04210301 372.21480363 85.0625 370 C81.19438948 367.10457224 78.24455003 364.86367098 77 360 C76.47640996 355.27998977 76.66606459 350.68896471 78 346.125 C79.9280598 339.34260524 79.24775544 332.17473805 78.515625 325.2421875 C76.60459734 306.68734128 78.37692928 291.36003169 87.18432617 274.7734375 C88.47882803 271.95893241 88.60451934 270.02259671 88 267 C85.70551421 264.24661705 83.35798451 262.25320856 80.4375 260.1875 C76.11430816 256.30771245 74.27073229 252.34479447 73.61315918 246.64959717 C73.44068133 242.50940072 73.39294264 238.38516816 73.390625 234.2421875 C73.3755955 232.69205033 73.35885864 231.14192889 73.34051514 229.59182739 C73.29693738 225.51340018 73.27689616 221.43518598 73.26177979 217.35656738 C73.24244362 213.28314806 73.20019058 209.20997757 73.16015625 205.13671875 C73.00796177 188.75824936 72.95905787 172.37912652 73 156 C71.82074951 156.02876221 70.64149902 156.05752441 69.42651367 156.0871582 C68.72336029 156.10380524 68.02020691 156.12045227 67.29574585 156.13760376 C65.83668538 156.17431208 64.37783971 156.21982172 62.91918945 156.27026367 C58.38491344 156.32358112 55.46877586 155.98127222 52 153 C49.05385415 148.25644714 48.60693899 144.23721199 48.69921875 138.78515625 C48.69157803 137.19595937 48.68308837 135.60676639 48.67382812 134.01757812 C48.67603712 131.53785663 48.68753977 129.05892006 48.71508789 126.5793457 C49.28089222 115.99849263 49.28089222 115.99849263 45.3671875 106.63671875 C43.75807833 105.1653643 43.75807833 105.1653643 42 104 C40.94683594 103.25234375 39.89367187 102.5046875 38.80859375 101.734375 C37.69613281 101.07953125 36.58367187 100.4246875 35.4375 99.75 C27.96978011 95.19271464 21.54196306 89.78065207 15 84 C13.92685547 83.09314453 13.92685547 83.09314453 12.83203125 82.16796875 C10.84700526 80.4858127 8.91804467 78.75820761 7 77 C6.13375 76.21109375 5.2675 75.4221875 4.375 74.609375 C-8.55733994 62.45981657 -27.56632827 42.32207143 -30 24 C-29.32195312 23.45472656 -28.64390625 22.90945313 -27.9453125 22.34765625 C-21.44590357 17.08151466 -15.19253902 11.62383645 -9 6 C-2.33333333 0 -2.33333333 0 0 0 Z " fill="#FCFDFD" transform="translate(382,418)"/>
<path d="M0 0 C1.56124511 -0.00285445 3.12248745 -0.0082334 4.68371582 -0.01600647 C7.94558302 -0.02326195 11.20568537 -0.0023119 14.46728516 0.03930664 C18.63082485 0.09048978 22.79086014 0.07461073 26.95444489 0.03792667 C30.17535114 0.01642938 33.39544669 0.02896034 36.61631775 0.05169487 C38.15037184 0.05883591 39.68450813 0.05601942 41.21852112 0.04271126 C54.63916915 -0.03961913 54.63916915 -0.03961913 59.82128906 4.44702148 C60.90168278 5.61225693 61.95612158 6.80275897 62.96875 8.02734375 C64.15210938 9.14109375 64.15210938 9.14109375 65.359375 10.27734375 C66.61489321 11.45900795 67.86478089 12.64667915 69.109375 13.83984375 C70.88737758 15.23032157 70.88737758 15.23032157 73 14.9140625 C75.30821902 13.87444798 76.51814739 12.70968108 78.21875 10.83984375 C79.41989939 9.52274182 80.68195598 8.26090709 81.96875 7.02734375 C82.43279236 6.5367749 82.89683472 6.04620605 83.37493896 5.54077148 C89.92618778 -0.44718337 97.41768525 0.13463279 105.78125 0.1953125 C107.32007605 0.1887194 108.8588959 0.18049725 110.39770508 0.17073059 C113.6121732 0.15742297 116.82564066 0.16613756 120.04003906 0.19018555 C124.14293426 0.21877821 128.24295789 0.18868638 132.34559631 0.14155102 C135.52009638 0.11224853 138.69391871 0.11612123 141.86849976 0.12957191 C143.38026166 0.13171332 144.8920792 0.12332738 146.40371704 0.10384178 C159.63314369 -0.03787806 159.63314369 -0.03787806 164.81640625 4.4465332 C165.89999313 5.61043615 166.95665141 6.80076843 167.96875 8.02734375 C168.71125 8.74921875 169.45375 9.47109375 170.21875 10.21484375 C170.79625 10.81296875 171.37375 11.41109375 171.96875 12.02734375 C175.2764095 15.38729827 178.72467026 18.51548262 182.3046875 21.58203125 C185.93287951 24.73327783 185.93287951 24.73327783 186.21166992 27.01879883 C186.20756104 27.85306396 186.20345215 28.6873291 186.19921875 29.546875 C186.19801025 30.52229248 186.19680176 31.49770996 186.19555664 32.50268555 C186.17609985 34.15457886 186.17609985 34.15457886 186.15625 35.83984375 C186.14907959 37.0410083 186.14190918 38.24217285 186.13452148 39.47973633 C186.03830129 50.95417216 185.74775651 62.42491952 185.46520996 73.89599609 C184.92803543 95.87466154 184.67085618 117.85655549 184.40625 139.83984375 C184.3951482 140.75974972 184.3840464 141.67965569 184.37260818 142.62743759 C184.23439455 154.09403351 184.10100359 165.5606757 183.96875 177.02734375 C166.14875 177.02734375 148.32875 177.02734375 129.96875 177.02734375 C129.94082443 166.9648283 129.9174947 156.90238247 129.90625 146.83984375 C129.90496597 145.69914618 129.90496597 145.69914618 129.90365601 144.53540421 C129.87876669 119.42469833 130.07660943 94.32243865 130.46875 69.21484375 C130.48668673 68.06580755 130.48668673 68.06580755 130.50498581 66.8935585 C130.65077873 57.60465735 130.80835362 48.31601273 130.96875 39.02734375 C120.07875 39.02734375 109.18875 39.02734375 97.96875 39.02734375 C97.96875 84.56734375 97.96875 130.10734375 97.96875 177.02734375 C81.13875 177.02734375 64.30875 177.02734375 46.96875 177.02734375 C46.63875 131.81734375 46.30875 86.60734375 45.96875 40.02734375 C35.40875 40.02734375 24.84875 40.02734375 13.96875 40.02734375 C13.99904297 42.64969971 14.02933594 45.27205566 14.06054688 47.97387695 C14.16258121 56.83844467 14.26184592 65.70304204 14.35990143 74.56765461 C14.41917643 79.91922316 14.47926094 85.27077953 14.54150391 90.62231445 C14.87577355 119.426482 15.01768862 148.22084936 14.96875 177.02734375 C-2.52125 177.02734375 -20.01125 177.02734375 -38.03125 177.02734375 C-38.16402344 170.49566406 -38.29679687 163.96398437 -38.43359375 157.234375 C-38.47957199 155.00802811 -38.52555023 152.78168121 -38.57292175 150.48786926 C-38.77877774 140.50923349 -38.97744903 130.53060512 -39.14926624 120.55131817 C-39.24703595 114.87659527 -39.34899806 109.20195333 -39.453125 103.52734375 C-39.47357565 102.40755945 -39.4940263 101.28777515 -39.51509666 100.134058 C-39.76557679 86.8072735 -40.18368799 73.51964689 -40.984375 60.21484375 C-41.16930906 56.65604995 -41.34928501 53.09703868 -41.52810669 49.53793335 C-41.7129847 46.43655809 -41.98994042 43.3528873 -42.27124023 40.2590332 C-42.77544323 32.42128942 -42.84379366 26.59613936 -37.47509766 20.45458984 C-33.95682763 16.93214412 -30.19349502 13.82232705 -26.2114563 10.84007263 C-23.94696513 8.95726523 -22.32081254 6.92801363 -20.47338867 4.64355469 C-14.88388496 -1.03350163 -7.42395133 -0.10562527 0 0 Z " fill="#FCFDFD" transform="translate(440.03125,246.97265625)"/>
<path d="M0 0 C1.96481099 -0.0072632 3.92961571 -0.01645455 5.89440918 -0.02748108 C10.00339311 -0.04227786 14.11131208 -0.03138263 18.22021484 -0.00268555 C23.47328845 0.03160438 28.72339115 -0.00176113 33.97621918 -0.05489254 C38.03086962 -0.08777242 42.08481598 -0.08279466 46.13954163 -0.06674385 C48.07554672 -0.06393296 50.01160986 -0.07317661 51.94749451 -0.09495354 C67.03481369 -0.23506656 67.03481369 -0.23506656 71.90429688 2.69161987 C73.90044935 4.67818646 75.42596129 6.66119973 77.03125 8.96484375 C78.31470095 10.1633933 79.62470398 11.33466338 80.96875 12.46484375 C81.61714844 13.05007813 82.26554688 13.6353125 82.93359375 14.23828125 C85.01527346 16.04272366 85.01527346 16.04272366 87.53515625 17.44140625 C90.55656618 19.43676617 92.16320389 20.82889304 94.03125 23.96484375 C95.72611714 33.45528683 94.21249539 43.51488065 93.03125 52.96484375 C75.87125 52.96484375 58.71125 52.96484375 41.03125 52.96484375 C41.03125 48.34484375 41.03125 43.72484375 41.03125 38.96484375 C30.14125 38.96484375 19.25125 38.96484375 8.03125 38.96484375 C8.05445313 41.55199219 8.07765625 44.13914062 8.1015625 46.8046875 C8.31265388 78.23039597 7.29301225 109.56724216 6.03125 140.96484375 C16.92125 140.96484375 27.81125 140.96484375 39.03125 140.96484375 C39.03125 130.73484375 39.03125 120.50484375 39.03125 109.96484375 C34.41125 109.96484375 29.79125 109.96484375 25.03125 109.96484375 C24.88224814 97.89569284 25.50421768 86.08658711 26.03125 73.96484375 C47.81125 73.96484375 69.59125 73.96484375 92.03125 73.96484375 C90.88095796 109.62389687 90.88095796 109.62389687 90.27734375 123.7421875 C90.21138107 125.31213337 90.1455533 126.88208491 90.07984924 128.45204163 C89.91185199 132.45805418 89.74210447 136.4639904 89.57189941 140.46990967 C89.39641396 144.6081475 89.22271181 148.74646023 89.04882812 152.88476562 C88.71131133 160.91152967 88.37193247 168.93821344 88.03125 176.96484375 C74.2269514 177.31384483 60.42371757 177.57963784 46.6158905 177.74202633 C40.20261799 177.82000598 33.79238343 177.92558881 27.38085938 178.09643555 C21.18192169 178.26056586 14.98588686 178.34933676 8.78494263 178.3880024 C6.43086063 178.41551918 4.07692098 178.46925748 1.72409058 178.5507946 C-18.60095673 179.22653297 -18.60095673 179.22653297 -27.11003113 171.75509739 C-29.68081711 169.20419199 -32.0762958 166.5556693 -34.39880371 163.77786446 C-36.680329 161.14309114 -39.21035244 158.93256587 -41.84375 156.65234375 C-47.95049942 151.21837181 -47.95049942 151.21837181 -48.22753906 147.36987305 C-48.24069023 145.75965496 -48.24188483 144.14931678 -48.234375 142.5390625 C-48.23751205 141.64076721 -48.24064911 140.74247192 -48.24388123 139.81695557 C-48.24903907 136.76190409 -48.23615601 133.70734745 -48.21875 130.65234375 C-48.21332184 129.59459747 -48.20789368 128.5368512 -48.20230103 127.447052 C-48.16697962 121.44690483 -48.11213801 115.44716244 -48.04736328 109.44726562 C-47.98210928 103.36257717 -47.95427012 97.27836887 -47.94091797 91.19335938 C-47.92242601 83.37250098 -47.85794629 75.55317977 -47.74995613 67.73303699 C-47.69106848 63.39026679 -47.65051727 59.04910786 -47.6541748 54.7059021 C-47.65652849 50.55879744 -47.60585844 46.41549146 -47.51701546 42.26937103 C-47.49298605 40.7310324 -47.48747881 39.19227301 -47.50210381 37.65381622 C-47.5968787 25.88863363 -47.5968787 25.88863363 -43.54946899 21.10623169 C-40.78609474 18.842191 -37.96182344 16.90802783 -34.96875 14.96484375 C-33.70178472 13.79620389 -32.46754445 12.59029391 -31.28125 11.33984375 C-30.4388678 10.50532433 -30.4388678 10.50532433 -29.57946777 9.65394592 C-27.93953545 8.00039976 -27.93953545 8.00039976 -26.59729004 6.13792419 C-19.77941721 -1.69430709 -9.51199062 -0.06524461 0 0 Z " fill="#FCFDFD" transform="translate(699.96875,247.03515625)"/>
<path d="M0 0 C36.63 0 73.26 0 111 0 C111.33 14.85 111.66 29.7 112 45 C112.29835532 54.30999257 112.60178296 63.61833282 112.93267822 72.92697144 C113.29431236 83.40237496 113.59229972 93.87987603 113.89276123 104.35717773 C113.99503844 107.83145941 114.10613522 111.30535325 114.21923828 114.77929688 C114.37757368 119.76820361 114.49407286 124.7562022 114.57321167 129.74697876 C114.60725644 131.51568163 114.65513171 133.28418219 114.7180481 135.05209351 C115.16795013 148.07554859 115.16795013 148.07554859 112.36376953 152.69604492 C110.36020209 154.75522757 108.36295118 156.3744725 106 158 C105.06414062 158.80308594 104.12828125 159.60617187 103.1640625 160.43359375 C102.32617188 161.09488281 101.48828125 161.75617188 100.625 162.4375 C99.79226563 163.09621094 98.95953125 163.75492188 98.1015625 164.43359375 C97.62193558 164.80373093 97.14230865 165.1738681 96.64814758 165.55522156 C94.87872072 167.03740916 94.87872072 167.03740916 93.13542175 169.17488098 C88.22523158 174.50526378 84.05829626 176.81855275 76.8190918 177.19628906 C73.61001265 177.3018865 70.40956799 177.29396853 67.19921875 177.265625 C65.47343822 177.27679333 63.74767154 177.29032564 62.02192688 177.30609131 C58.4163391 177.32829199 54.81275543 177.31725176 51.20727539 177.28320312 C46.61942914 177.24319402 42.03775048 177.29333294 37.45054913 177.36975479 C33.88875655 177.41764638 30.32840401 177.41320082 26.76639748 177.39409637 C25.07730813 177.39181236 23.38810218 177.40603454 21.69931602 177.43811798 C11.38213701 177.60312195 4.81911958 176.50217541 -2.84373188 169.25973892 C-4.24705549 167.85751505 -5.62396717 166.42901455 -7 165 C-8.74020412 163.40590651 -10.48833989 161.82034967 -12.25 160.25 C-12.95640625 159.59515625 -13.6628125 158.9403125 -14.390625 158.265625 C-16.78837061 155.97622613 -16.78837061 155.97622613 -19.22631836 154.95336914 C-22.32546502 153.25241763 -23.94062481 151.91068568 -26 149 C-27.99542515 141.9012509 -27.82039886 134.25568927 -28.0625 126.9375 C-28.16216507 124.919728 -28.26564752 122.90214074 -28.37304688 120.88476562 C-28.88796247 110.57498322 -29 100.33531488 -29 90 C-11.18 90 6.64 90 25 90 C25.495 97.6415625 25.495 97.6415625 26 105.4375 C26.15662109 107.78959595 26.15662109 107.78959595 26.31640625 110.18920898 C26.39761719 111.48673096 26.47882813 112.78425293 26.5625 114.12109375 C26.64628906 115.4145874 26.73007812 116.70808105 26.81640625 118.04077148 C27.08721168 125.35575917 27 132.68000134 27 140 C38.22 140 49.44 140 61 140 C60.71125 136.16375 60.4225 132.3275 60.125 128.375 C59.0517622 113.01405971 58.44789526 97.63659136 57.875 82.25 C57.83070862 81.08845398 57.78641724 79.92690796 57.74078369 78.73016357 C57.61206978 75.32545563 57.48866713 71.92059808 57.3671875 68.515625 C57.32978455 67.52239227 57.29238159 66.52915955 57.25384521 65.50582886 C56.93969353 56.3223912 57 47.20872139 57 38 C38.85 38 20.7 38 2 38 C0 19 0 19 0 0 Z " fill="#FCFDFD" transform="translate(259,248)"/>
<path d="M0 0 C0.33 0 0.66 0 1 0 C1.07927734 0.63164063 1.15855469 1.26328125 1.24023438 1.9140625 C5.21577258 32.4005102 15.223369 59.86425996 33 85 C33.41942871 85.59586914 33.83885742 86.19173828 34.27099609 86.80566406 C62.02810791 125.58478525 103.75744062 148.54602176 150 157 C152.66498156 157.38997159 155.32176663 157.7090939 158 158 C158 158.33 158 158.66 158 159 C105.86 159 53.72 159 0 159 C0 106.53 0 54.06 0 0 Z " fill="#FCFDFD" transform="translate(0,865)"/>
<path d="M0 0 C0.33 0 0.66 0 1 0 C1 51.81 1 103.62 1 157 C-51.14 157 -103.28 157 -157 157 C-157 156.67 -157 156.34 -157 156 C-155.906875 155.86464844 -154.81375 155.72929688 -153.6875 155.58984375 C-117.55838003 150.72394228 -83.20876033 135.73682542 -56.67578125 110.51953125 C-54.44499426 108.41900919 -52.17249625 106.45037166 -49.8125 104.5 C-44.89126667 100.20657833 -40.97812792 95.15611726 -37 90 C-36.5678418 89.44812012 -36.13568359 88.89624023 -35.69042969 88.32763672 C-24.66199167 74.17831772 -15.94378062 58.95774822 -10 42 C-9.74766602 41.29858887 -9.49533203 40.59717773 -9.23535156 39.87451172 C-4.59808602 26.83112762 -2.05416832 13.66925473 0 0 Z " fill="#FCFDFD" transform="translate(1023,867)"/>
<path d="M0 0 C53.46 0 106.92 0 162 0 C162 52.14 162 104.28 162 158 C161.67 158 161.34 158 161 158 C160.88519287 157.26177002 160.77038574 156.52354004 160.65209961 155.76293945 C155.18934904 121.33453444 144.3605708 89.53859898 121 63 C120.27039063 62.16082031 119.54078125 61.32164063 118.7890625 60.45703125 C116.56139444 57.93624897 114.29293845 55.46147923 112 53 C111.27683594 52.21109375 110.55367187 51.4221875 109.80859375 50.609375 C97.78936741 38.00037275 83.31082697 28.17194906 68 20 C67.3306543 19.64067383 66.66130859 19.28134766 65.97167969 18.91113281 C45.23521339 7.98395169 23.08392125 3.50417292 0 1 C0 0.67 0 0.34 0 0 Z " fill="#FCFDFD" transform="translate(862,0)"/>
<path d="M0 0 C52.14 0 104.28 0 158 0 C158 0.33 158 0.66 158 1 C157.37770508 1.08975098 156.75541016 1.17950195 156.11425781 1.27197266 C115.58326103 7.24378741 81.70535011 22.68772838 52 51 C51.15824219 51.77730469 50.31648438 52.55460937 49.44921875 53.35546875 C20.63022711 80.79556127 4.55561103 120.88827867 1 160 C0.67 160 0.34 160 0 160 C0 107.2 0 54.4 0 0 Z " fill="#FDFDFD" transform="translate(0,0)"/>
<path d="M0 0 C10.89 0 21.78 0 33 0 C33.02792557 10.06251545 33.0512553 20.12496128 33.0625 30.1875 C33.06335602 30.94796505 33.06421204 31.7084301 33.06509399 32.49193954 C33.08998331 57.60264542 32.89214057 82.7049051 32.5 107.8125 C32.48804218 108.57852413 32.47608437 109.34454826 32.46376419 110.13378525 C32.31797143 119.4226761 32.16361891 128.71140465 32 138 C31.34 137.67 30.68 137.34 30 137 C30 92.45 30 47.9 30 2 C21.42 2.33 12.84 2.66 4 3 C4 5.31 4 7.62 4 10 C3.67 10.33 3.34 10.66 3 11 C2.87992935 13.82930389 2.82450567 16.63525953 2.81054688 19.46582031 C2.79810692 20.80067978 2.79810692 20.80067978 2.78541565 22.1625061 C2.76795334 24.10770089 2.75280373 26.05291744 2.73963928 27.99814606 C2.7185589 31.10630093 2.69151893 34.21435412 2.66296387 37.32244873 C2.60311982 43.96492513 2.55137416 50.6074536 2.5 57.25 C2.43198781 65.90108719 2.36007418 74.55212922 2.28125 83.203125 C2.27186401 84.24790512 2.26247803 85.29268524 2.25280762 86.36912537 C2.09871176 102.9258068 1.74079935 119.458177 1 136 C0.67 136 0.34 136 0 136 C0 91.12 0 46.24 0 0 Z " fill="#2F3E60" transform="translate(538,286)"/>
<path d="M0 0 C0.66 0 1.32 0 2 0 C2.35191406 0.79664063 2.70382812 1.59328125 3.06640625 2.4140625 C6.2154308 9.17254338 8.93034471 13.62984819 15 18 C9.72506073 25.83705263 3.01027886 31.75939568 -4 38 C-4.77859375 37.21753906 -5.5571875 36.43507813 -6.359375 35.62890625 C-11.4713402 30.53962729 -16.38204983 27.71062011 -23 25 C-23 24.34 -23 23.68 -23 23 C-22.21496094 22.6596875 -21.42992187 22.319375 -20.62109375 21.96875 C-9.73574938 16.94679972 -4.17844446 11.21172676 0 0 Z " fill="#909AB6" transform="translate(967,944)"/>
<path d="M0 0 C1.485 0.99 1.485 0.99 3 2 C5.1080669 2.30992718 5.1080669 2.30992718 7.46086121 2.2784729 C8.83014015 2.29521812 8.83014015 2.29521812 10.2270813 2.31230164 C11.22617523 2.31446182 12.22526917 2.31662201 13.25463867 2.31884766 C14.83537422 2.33391609 14.83537422 2.33391609 16.44804382 2.34928894 C19.93801315 2.38022737 23.4279054 2.39718581 26.91796875 2.4140625 C29.33507455 2.43276556 31.75217376 2.45233831 34.16926575 2.4727478 C40.53636804 2.52416602 46.90349152 2.5637399 53.27069092 2.60089111 C59.76580082 2.64087005 66.26082183 2.69199022 72.75585938 2.7421875 C85.50384277 2.83906151 98.25187708 2.92380773 111 3 C110.67 3.66 110.34 4.32 110 5 C108.73542969 4.98839844 107.47085938 4.97679687 106.16796875 4.96484375 C104.50781398 4.95546434 102.84765761 4.9463643 101.1875 4.9375 C100.35412109 4.92912109 99.52074219 4.92074219 98.66210938 4.91210938 C97.85966797 4.90888672 97.05722656 4.90566406 96.23046875 4.90234375 C95.49207764 4.89710693 94.75368652 4.89187012 93.99291992 4.88647461 C91.78942591 4.92476787 91.78942591 4.92476787 89 6 C86.43074148 6.101177 83.88854359 6.14684322 81.3190918 6.14526367 C80.14783249 6.15030159 80.14783249 6.15030159 78.95291138 6.15544128 C76.36833103 6.16494954 73.7838155 6.16689446 71.19921875 6.16796875 C69.40183994 6.17118188 67.60446139 6.17454599 65.80708313 6.17805481 C62.03682855 6.18404609 58.26659689 6.18589476 54.49633789 6.18530273 C49.67103695 6.18520122 44.8458835 6.19884261 40.02061749 6.21607494 C36.30680164 6.22720865 32.59302127 6.2292215 28.87919044 6.22869301 C27.1006399 6.22987147 25.3220884 6.23428575 23.54355431 6.24202538 C21.0519627 6.25185105 18.56068881 6.24893688 16.0690918 6.24291992 C14.97240425 6.25134918 14.97240425 6.25134918 13.8535614 6.25994873 C9.53621346 6.23352984 5.97352854 5.72021289 2 4 C0.625 1.875 0.625 1.875 0 0 Z " fill="#2B395F" transform="translate(677,421)"/>
<path d="M0 0 C0.66 0 1.32 0 2 0 C4.21446941 22.65876733 4.21446941 22.65876733 0.4140625 28.38671875 C-1.86936887 30.99184901 -4.55545484 33.09458372 -7.2265625 35.2890625 C-9.59388841 37.57295843 -10.37683207 39.80626437 -11 43 C-9.68 43.33 -8.36 43.66 -7 44 C-6.7525 45.11375 -6.505 46.2275 -6.25 47.375 C-5.43339801 51.06414789 -5.43339801 51.06414789 -2.9375 52.125 C-2.298125 52.41375 -1.65875 52.7025 -1 53 C-0.25 55.625 -0.25 55.625 0 58 C-3.85692534 56.71435822 -4.63483972 55.05593068 -6.9375 51.75 C-8.97601946 48.84344047 -10.92578079 46.08160358 -13.31640625 43.453125 C-15 41 -15 41 -15.15625 38.5390625 C-13.4531053 34.79904881 -10.70575096 32.85248057 -7.5 30.375 C-2.79519365 26.94313309 -2.79519365 26.94313309 0 22 C0.27229433 16.97056356 0.14974 12.04817999 -0.5625 7.0625 C-0.96496376 4.2452537 -0.95024316 2.63956434 0 0 Z " fill="#2F3E62" transform="translate(564,757)"/>
<path d="M0 0 C2.66971212 1.52554978 4.94835497 2.95099504 7.1870575 5.07525635 C10.75026097 7.5133628 13.65031161 7.57499794 17.81958008 7.54589844 C18.97647339 7.56140495 18.97647339 7.56140495 20.15673828 7.57722473 C22.69454997 7.60661621 25.23156286 7.60815108 27.76953125 7.609375 C29.53360003 7.62435917 31.2976548 7.64108682 33.06169128 7.65948486 C37.69604136 7.70314418 42.3302022 7.72315428 46.96472168 7.73822021 C51.69729801 7.75779643 56.42967012 7.79976587 61.16210938 7.83984375 C70.44134324 7.91513045 79.72053136 7.96543124 89 8 C86.62216162 10.37783838 85.27926335 10.59009208 82 11 C81.01 10.505 81.01 10.505 80 10 C77.75335569 9.90797878 75.50389567 9.88250195 73.25537109 9.88647461 C72.56257553 9.88632858 71.86977997 9.88618256 71.1559906 9.8860321 C68.86177459 9.88672982 66.56763936 9.89451558 64.2734375 9.90234375 C62.68445887 9.90420843 61.09547966 9.9056321 59.50650024 9.90663147 C55.32090675 9.91045269 51.13534787 9.92027961 46.94976807 9.93133545 C42.68005847 9.94155806 38.4103433 9.94613091 34.140625 9.95117188 C25.76040077 9.96190222 17.38020469 9.97897392 9 10 C9 9.34 9 8.68 9 8 C8.01 8 7.02 8 6 8 C6 7.34 6 6.68 6 6 C4.35 6 2.7 6 1 6 C0.67 4.02 0.34 2.04 0 0 Z " fill="#2B395E" transform="translate(255,416)"/>
<path d="M0 0 C0.33 0 0.66 0 1 0 C2.40796195 19.17669721 3.42329932 38.16212587 2.1875 57.375 C2.14038879 58.11062164 2.09327759 58.84624329 2.04473877 59.60415649 C1.57080013 66.76119299 1.00055628 73.89513249 0 81 C-0.33 81 -0.66 81 -1 81 C-1.16548354 53.98544783 -0.69642971 27.00517316 0 0 Z " fill="#41506F" transform="translate(625,299)"/>
<path d="M0 0 C0.81188278 -0.00412399 1.62376556 -0.00824799 2.46025085 -0.01249695 C3.79057846 0.00368179 3.79057846 0.00368179 5.14778137 0.02018738 C6.08456223 0.0197493 7.02134308 0.01931122 7.98651123 0.01885986 C11.08710982 0.02095216 14.18716966 0.04430424 17.28767395 0.0677948 C19.43572697 0.07338918 21.58378382 0.07766002 23.73184204 0.08065796 C29.38888596 0.09211914 35.04569926 0.12159742 40.70265198 0.1547699 C46.47379944 0.18544326 52.24498412 0.19915745 58.01618958 0.21427917 C69.34246284 0.24646578 80.66856485 0.29767763 91.9947052 0.36076355 C91.9947052 1.35076355 91.9947052 2.34076355 91.9947052 3.36076355 C92.9847052 3.69076355 93.9747052 4.02076355 94.9947052 4.36076355 C94.9947052 5.02076355 94.9947052 5.68076355 94.9947052 6.36076355 C95.9847052 6.69076355 96.9747052 7.02076355 97.9947052 7.36076355 C97.6647052 8.35076355 97.3347052 9.34076355 96.9947052 10.36076355 C95.86882506 9.40346439 94.74403371 8.4448846 93.6197052 7.48576355 C92.99322083 6.95209167 92.36673645 6.4184198 91.7212677 5.86857605 C90.43633869 4.74644348 89.20098545 3.5670438 87.9947052 2.36076355 C85.20115157 2.14110444 82.50514023 2.04617799 79.70881653 2.03849792 C78.85170074 2.02856812 77.99458496 2.01863831 77.11149597 2.00840759 C74.26654378 1.97912092 71.42181484 1.96555126 68.57673645 1.95451355 C66.60096225 1.94301122 64.62518812 1.93149575 62.64941406 1.91996765 C58.50074725 1.89893332 54.35215809 1.88725842 50.20344543 1.8802948 C44.89467185 1.86934218 39.58692866 1.82133226 34.27847767 1.76435089 C30.19401085 1.72703983 26.10979029 1.71668379 22.02516747 1.71362305 C20.06876194 1.70757852 18.11236032 1.69154976 16.15612221 1.66525269 C13.41248324 1.63101405 10.67133435 1.63491662 7.92756653 1.64787292 C7.12365982 1.62944336 6.31975311 1.61101379 5.4914856 1.59202576 C-0.06506523 1.67393578 -2.80171455 3.21752241 -6.78809071 7.07332611 C-7.18976806 7.49818047 -7.59144541 7.92303482 -8.0052948 8.36076355 C-7.28271473 3.01367101 -5.72731456 -0.02246006 0 0 Z " fill="#344262" transform="translate(681.0052947998047,246.6392364501953)"/>
<path d="M0 0 C0.66 0.33 1.32 0.66 2 1 C-0.92402211 5.16110839 -3.51517094 6.75758547 -8 9 C-9.34919532 10.65385233 -10.68133728 12.321702 -12 14 C-13.16507374 14.86440955 -14.35464756 15.69644964 -15.5625 16.5 C-18.71743531 18.63225501 -20.06088043 20.71192769 -22 24 C-23.546875 25.0209375 -23.546875 25.0209375 -25.125 26.0625 C-28.35988322 28.24253 -28.21259894 28.51293816 -29 32 C-31.375 33.8125 -31.375 33.8125 -34 35 C-34.99 34.67 -35.98 34.34 -37 34 C-11.51987281 5.75993641 -11.51987281 5.75993641 0 0 Z " fill="#2D3B5E" transform="translate(75,31)"/>
<path d="M0 0 C0.33 0 0.66 0 1 0 C1.97361623 10.17589331 2.06095138 20.16488729 1.75805664 30.36987305 C1.68709532 32.8265099 1.63303146 35.28315063 1.58007812 37.74023438 C1.38714931 45.3527038 1.09785107 52.62755196 -1 60 C-1.33 60 -1.66 60 -2 60 C-1.0125055 16.37242929 -1.0125055 16.37242929 0 0 Z " fill="#374564" transform="translate(791,332)"/>
<path d="M0 0 C6.62680163 8.05803393 14 25.48348478 14 36 C13.34 36 12.68 36 12 36 C11.34 34.02 10.68 32.04 10 30 C9.34 30 8.68 30 8 30 C7.66048381 28.43883181 7.32867456 26.87598662 7 25.3125 C6.814375 24.44238281 6.62875 23.57226562 6.4375 22.67578125 C6.01027953 20.06287036 5.92383799 17.64186962 6 15 C5.34 15 4.68 15 4 15 C4 13.35 4 11.7 4 10 C3.01 9.67 2.02 9.34 1 9 C-0.4783226 6.04335481 -0.06032783 3.25770263 0 0 Z " fill="#324262" transform="translate(1004,94)"/>
<path d="M0 0 C1.32 0.66 2.64 1.32 4 2 C3.38125 2.763125 2.7625 3.52625 2.125 4.3125 C-0.05597052 6.99625809 -0.05597052 6.99625809 -2 10 C-2.66 10 -3.32 10 -4 10 C-4 10.99 -4 11.98 -4 13 C-4.66 13.66 -5.32 14.32 -6 15 C-6.69748583 16.31747324 -7.36959957 17.64914193 -8 19 C-8.66 19 -9.32 19 -10 19 C-10.268125 19.804375 -10.53625 20.60875 -10.8125 21.4375 C-11.204375 22.283125 -11.59625 23.12875 -12 24 C-12.99 24.33 -13.98 24.66 -15 25 C-15.165 25.66 -15.33 26.32 -15.5 27 C-15.665 27.66 -15.83 28.32 -16 29 C-16.99 29.33 -17.98 29.66 -19 30 C-19 26.51856408 -18.47460573 25.9732784 -16.3671875 23.33984375 C-15.8105542 22.6327124 -15.2539209 21.92558105 -14.68041992 21.19702148 C-14.08463135 20.45137939 -13.48884277 19.7057373 -12.875 18.9375 C-8.09545424 12.84061903 -3.67836892 6.83605548 0 0 Z " fill="#344265" transform="translate(665,456)"/>
<path d="M0 0 C-0.203125 1.83984375 -0.203125 1.83984375 -1 4 C-3.109375 5.37890625 -3.109375 5.37890625 -5.75 6.5625 C-6.6575 6.9853125 -7.565 7.408125 -8.5 7.84375 C-9.325 8.2253125 -10.15 8.606875 -11 9 C-13.81329599 10.59846363 -16.44773087 12.30445699 -19.125 14.125 C-22 16 -22 16 -25 17 C-25 15.68 -25 14.36 -25 13 C-22.67780029 11.2825398 -20.50696478 9.89223283 -18 8.5 C-17.31462158 8.10562744 -16.62924316 7.71125488 -15.9230957 7.30493164 C-3.12847078 0 -3.12847078 0 0 0 Z " fill="#303F63" transform="translate(104,15)"/>
<path d="M0 0 C0.66 0 1.32 0 2 0 C2 0.99 2 1.98 2 3 C2.99 3 3.98 3 5 3 C5.33 4.32 5.66 5.64 6 7 C9.72430357 7.69289369 13.21083746 8.11144596 17 8 C16.690625 9.11375 16.690625 9.11375 16.375 10.25 C15.94998068 13.36680834 16.12619554 14.50159405 18 17 C19.32594105 17.36162029 20.65938457 17.69728039 22 18 C22.33 18.99 22.66 19.98 23 21 C22.01 21.33 21.02 21.66 20 22 C17.4156254 19.58444487 14.83268701 17.1673593 12.25 14.75 C11.52039063 14.06808594 10.79078125 13.38617188 10.0390625 12.68359375 C9.33007812 12.01972656 8.62109375 11.35585938 7.890625 10.671875 C7.24125977 10.0644043 6.59189453 9.45693359 5.92285156 8.83105469 C5.28831055 8.22680664 4.65376953 7.62255859 4 7 C3.25975586 6.32614258 2.51951172 5.65228516 1.75683594 4.95800781 C0 3 0 3 0 0 Z " fill="#2E3D63" transform="translate(603,248)"/>
<path d="M0 0 C0.33 0 0.66 0 1 0 C1.72247907 11.14840774 2.19264229 21.86867191 1 33 C5.62 33 10.24 33 15 33 C15 36.63 15 40.26 15 44 C14.67 44 14.34 44 14 44 C13.67 41.03 13.34 38.06 13 35 C12.505 35.495 12.505 35.495 12 36 C10.14712498 36.07226502 8.29166122 36.0838122 6.4375 36.0625 C5.42558594 36.05347656 4.41367187 36.04445313 3.37109375 36.03515625 C2.19740234 36.01775391 2.19740234 36.01775391 1 36 C-0.53297297 32.93405406 -0.12131455 29.72888147 -0.09765625 26.3671875 C-0.0962413 25.61535187 -0.09482635 24.86351624 -0.09336853 24.08889771 C-0.08776465 21.6842249 -0.07521157 19.27964473 -0.0625 16.875 C-0.0574855 15.24609509 -0.0529225 13.61718873 -0.04882812 11.98828125 C-0.03779397 7.99215173 -0.02052679 3.99609158 0 0 Z " fill="#27375B" transform="translate(724,324)"/>
<path d="M0 0 C0.99 0.33 1.98 0.66 3 1 C-0.78942063 5.05853495 -4.79520506 8.09802005 -9.4375 11.125 C-10.08009766 11.55425781 -10.72269531 11.98351562 -11.38476562 12.42578125 C-15.14189252 14.90510356 -18.92175055 17.07118342 -23 19 C-22.875 17.25 -22.875 17.25 -22 15 C-18.54012204 12.32645794 -15.11697928 10.45305151 -11 9 C-11 8.34 -11 7.68 -11 7 C-9.36816893 5.94410931 -7.69207001 4.9563874 -6 4 C-4.96875 3.2575 -3.9375 2.515 -2.875 1.75 C-1.92625 1.1725 -0.9775 0.595 0 0 Z " fill="#2F3D60" transform="translate(955,984)"/>
<path d="M0 0 C0.33 0.66 0.66 1.32 1 2 C1.99 2.33 2.98 2.66 4 3 C4.12375 4.03125 4.2475 5.0625 4.375 6.125 C4.9481752 9.67868623 5.51684364 12.72144384 7 16 C9.03243548 16.96877057 9.03243548 16.96877057 11 17 C11.33 19.31 11.66 21.62 12 24 C11.34 24.33 10.68 24.66 10 25 C8.17575388 21.94435413 6.36774517 18.87940351 4.5625 15.8125 C4.04623047 14.94818359 3.52996094 14.08386719 2.99804688 13.19335938 C2.50498047 12.35224609 2.01191406 11.51113281 1.50390625 10.64453125 C1.04830322 9.87471924 0.5927002 9.10490723 0.12329102 8.31176758 C-1.06352294 5.86926783 -1.58432202 3.67398817 -2 1 C-1.34 0.67 -0.68 0.34 0 0 Z " fill="#2D3C61" transform="translate(19,921)"/>
<path d="M0 0 C0.33 0 0.66 0 1 0 C1 4.95 1 9.9 1 15 C-9.89 15 -20.78 15 -32 15 C-32 13.68 -32 12.36 -32 11 C-31.01 11.33 -30.02 11.66 -29 12 C-26.86338742 12.15070797 -24.72287876 12.2485966 -22.58203125 12.31640625 C-21.32841797 12.35830078 -20.07480469 12.40019531 -18.78320312 12.44335938 C-16.81770508 12.50233398 -16.81770508 12.50233398 -14.8125 12.5625 C-13.47720022 12.60570992 -12.14191348 12.649325 -10.80664062 12.69335938 C-7.53788766 12.79956434 -4.26895777 12.90029785 -1 13 C-0.67 8.71 -0.34 4.42 0 0 Z " fill="#354363" transform="translate(319,373)"/>
<path d="M0 0 C0.66 0.33 1.32 0.66 2 1 C-0.66666667 5 -3.33333333 9 -6 13 C-6.66 13 -7.32 13 -8 13 C-8.268125 14.27875 -8.53625 15.5575 -8.8125 16.875 C-9.57190099 20.49675855 -9.70077803 20.80051868 -13 23 C-15.1875 22.625 -15.1875 22.625 -17 22 C-9.67578125 11.74609375 -9.67578125 11.74609375 -8.34228516 9.88623047 C-7.42685962 8.59983948 -6.52063351 7.30686427 -5.62255859 6.00830078 C-2.21064815 1.10532407 -2.21064815 1.10532407 0 0 Z " fill="#2C3B62" transform="translate(553,859)"/>
<path d="M0 0 C0.66 1.32 1.32 2.64 2 4 C1.21654285 5.17219543 0.42297164 6.33763668 -0.375 7.5 C-0.81585938 8.1496875 -1.25671875 8.799375 -1.7109375 9.46875 C-2.13632812 9.9740625 -2.56171875 10.479375 -3 11 C-3.66 11 -4.32 11 -5 11 C-5.2475 11.9075 -5.495 12.815 -5.75 13.75 C-7.0678305 17.1763593 -8.41433859 18.49514051 -11 21 C-12.25436187 23.63222962 -12.25436187 23.63222962 -13 26 C-13.66 25.67 -14.32 25.34 -15 25 C-13.68012574 20.44474166 -11.8693098 16.96471273 -9.1875 13.0625 C-8.47980469 12.02738281 -7.77210937 10.99226563 -7.04296875 9.92578125 C-4.71956554 6.59838354 -2.38698742 3.2821077 0 0 Z " fill="#2E3D60" transform="translate(37,66)"/>
<path d="M0 0 C-2.92082455 1.46041228 -5.48301369 1.11928796 -8.74462891 1.11352539 C-9.78382225 1.11374443 -9.78382225 1.11374443 -10.8440094 1.1139679 C-13.13822541 1.11327018 -15.43236064 1.10548442 -17.7265625 1.09765625 C-19.31554113 1.09579157 -20.90452034 1.0943679 -22.49349976 1.09336853 C-26.67909325 1.08954731 -30.86465213 1.07972039 -35.05023193 1.06866455 C-39.31994153 1.05844194 -43.5896567 1.05386909 -47.859375 1.04882812 C-56.23959923 1.03809778 -64.61979531 1.02102608 -73 1 C-73 0.34 -73 -0.32 -73 -1 C-63.77747602 -1.17682547 -54.55483998 -1.34279026 -45.33187294 -1.49477577 C-41.04958066 -1.56568761 -36.76742315 -1.64038191 -32.48535156 -1.72363281 C-28.3552431 -1.80379156 -24.22507485 -1.87412915 -20.09467697 -1.93757248 C-18.51651185 -1.96355631 -16.93840157 -1.99311776 -15.36037064 -2.02626419 C-13.15516008 -2.07198161 -10.95009976 -2.10513376 -8.74462891 -2.13525391 C-7.48776276 -2.15746002 -6.23089661 -2.17966614 -4.9359436 -2.20254517 C-2 -2 -2 -2 0 0 Z " fill="#354263" transform="translate(602,248)"/>
<path d="M0 0 C0.99 0.33 1.98 0.66 3 1 C2.27683594 2.10408203 2.27683594 2.10408203 1.5390625 3.23046875 C0.90742188 4.20628906 0.27578125 5.18210937 -0.375 6.1875 C-1.31472656 7.63189453 -1.31472656 7.63189453 -2.2734375 9.10546875 C-4.66139811 13.10881448 -6.15292216 16.67040126 -6.625 21.3125 C-6.74875 22.529375 -6.8725 23.74625 -7 25 C-9.79908133 22.20091867 -9.72362983 19.86918237 -10 16 C-9.34 15.34 -8.68 14.68 -8 14 C-7.33315226 12.39172015 -6.71334938 10.76362595 -6.125 9.125 C-4.64400129 5.2721763 -3.32145619 2.60971558 0 0 Z " fill="#29395D" transform="translate(465,805)"/>
<path d="M0 0 C0.33 0.66 0.66 1.32 1 2 C-0.81912435 6.74993581 -2.58481554 8.62259298 -7 11 C-7.99 12.485 -7.99 12.485 -9 14 C-9.99 14.33 -10.98 14.66 -12 15 C-12.28875 15.639375 -12.5775 16.27875 -12.875 16.9375 C-14.39098648 19.71680854 -16.05867273 20.07115981 -19 21 C-18.61197494 16.53246828 -15.49152729 14.37557033 -12.3125 11.625 C-11.21916317 10.65334307 -10.1267062 9.68069512 -9.03515625 8.70703125 C-8.51066895 8.24248535 -7.98618164 7.77793945 -7.44580078 7.29931641 C-4.85465403 4.97069719 -2.42843581 2.49589236 0 0 Z " fill="#2B3C5F" transform="translate(640,489)"/>
<path d="M0 0 C-2.96960695 1.97973797 -4.28319782 2.3512612 -7.6875 2.875 C-11.9971694 3.66143602 -15.40628439 4.95247949 -19.2109375 7.09765625 C-22.75546407 8.88539782 -25.21533734 9.21649871 -29 8 C-29 7.34 -29 6.68 -29 6 C-25.79352624 5.01467265 -22.58451996 4.03785481 -19.375 3.0625 C-18.47136719 2.78470703 -17.56773438 2.50691406 -16.63671875 2.22070312 C-4.43044933 -1.47681644 -4.43044933 -1.47681644 0 0 Z " fill="#354364" transform="translate(143,4)"/>
<path d="M0 0 C3.36663541 3.27229886 6.39967271 6.63285895 9.3125 10.3125 C13.25981786 15.20028621 17.44977482 19.67294663 22 24 C21.67 24.66 21.34 25.32 21 26 C17.58841744 24.86280581 16.88145399 23.95657056 15 21 C15 20.34 15 19.68 15 19 C14.34 19 13.68 19 13 19 C8.23255814 14.69767442 8.23255814 14.69767442 7 11 C4.98491642 10.26676204 4.98491642 10.26676204 3 10 C2.87625 9.278125 2.7525 8.55625 2.625 7.8125 C2.0095069 5.04278106 1.11555626 2.6029646 0 0 Z " fill="#334160" transform="translate(367,470)"/>
<path d="M0 0 C0.66 0.66 1.32 1.32 2 2 C-2.17747489 10.69778206 -6.60864104 18.97031644 -12 27 C-13.1171875 23.28125 -13.1171875 23.28125 -12.0625 20.75 C-11.711875 20.1725 -11.36125 19.595 -11 19 C-10.34 19 -9.68 19 -9 19 C-8.814375 17.7934375 -8.814375 17.7934375 -8.625 16.5625 C-8.41875 15.716875 -8.2125 14.87125 -8 14 C-7.34 13.67 -6.68 13.34 -6 13 C-5.14814527 10.5113354 -4.52895891 7.99351892 -3.87890625 5.4453125 C-2.96314286 2.89745524 -2.04787873 1.72272806 0 0 Z " fill="#2F3D5F" transform="translate(1007,919)"/>
<path d="M0 0 C3.31636282 1.39323844 4.93402481 2.87019017 6.98046875 5.80859375 C7.76647461 6.92911133 7.76647461 6.92911133 8.56835938 8.07226562 C9.10267578 8.85279297 9.63699219 9.63332031 10.1875 10.4375 C10.73341797 11.21416016 11.27933594 11.99082031 11.84179688 12.79101562 C15.85478051 18.56434152 15.85478051 18.56434152 17 22 C16.34 22.33 15.68 22.66 15 23 C14.34 22.67 13.68 22.34 13 22 C12.66666667 20.33333333 12.33333333 18.66666667 12 17 C11.34 16.67 10.68 16.34 10 16 C9.525625 15.175 9.05125 14.35 8.5625 13.5 C7.18680459 10.70844517 7.18680459 10.70844517 4 10 C2.12896153 6.76166418 0.70771947 3.68014125 0 0 Z " fill="#303F60" transform="translate(983,64)"/>
<path d="M0 0 C2.58587003 1.26587358 5.16865501 2.53745849 7.75 3.8125 C8.47960937 4.16892578 9.20921875 4.52535156 9.9609375 4.89257812 C17.32006505 8.53869132 17.32006505 8.53869132 20 11 C20 11.66 20 12.32 20 13 C14.17743046 12.75739294 11.19057639 11.0457363 6.69921875 7.375 C5.03613969 5.92849328 5.03613969 5.92849328 3 5 C3 4.34 3 3.68 3 3 C2.01 2.67 1.02 2.34 0 2 C0 1.34 0 0.68 0 0 Z " fill="#2B3A5E" transform="translate(925,17)"/>
<path d="M0 0 C0.99 0.33 1.98 0.66 3 1 C3.87890625 2.85546875 3.87890625 2.85546875 4.5625 5.1875 C4.92988281 6.41146484 4.92988281 6.41146484 5.3046875 7.66015625 C5.53414062 8.43230469 5.76359375 9.20445312 6 10 C6.5878125 11.546875 6.5878125 11.546875 7.1875 13.125 C8.1439075 16.50921115 8.13997691 19.50057723 8 23 C5.6902682 19.53540231 4.32427787 15.93533104 2.875 12.0625 C2.59785156 11.34642578 2.32070312 10.63035156 2.03515625 9.89257812 C0.7052272 6.35811152 0 3.82014887 0 0 Z " fill="#2C3D5F" transform="translate(7,896)"/>
<path d="M0 0 C0.99 0.66 1.98 1.32 3 2 C1.95199219 2.70576172 1.95199219 2.70576172 0.8828125 3.42578125 C-0.02726563 4.04839844 -0.93734375 4.67101562 -1.875 5.3125 C-2.77992188 5.92738281 -3.68484375 6.54226563 -4.6171875 7.17578125 C-8.31538076 10.00702101 -9.27758484 12.54510652 -10 17 C-10.33 17 -10.66 17 -11 17 C-11.42656834 12.05180731 -11.60487682 9.94289622 -8.875 5.6875 C-6.03549563 3.0331807 -3.56817358 1.49365406 0 0 Z " fill="#2B3C5F" transform="translate(605,518)"/>
<path d="M0 0 C-3.31359366 2.20906244 -6.62755721 3.34349593 -10.375 4.5625 C-11.365 4.89411133 -11.365 4.89411133 -12.375 5.23242188 C-21.99972964 8.40551501 -21.99972964 8.40551501 -25.3125 7.0625 C-25.869375 6.711875 -26.42625 6.36125 -27 6 C-17.58997722 3.70387244 -17.58997722 3.70387244 -13 4 C-13 3.34 -13 2.68 -13 2 C-8.11922548 -0.44038726 -5.47332932 -1.46845421 0 0 Z " fill="#2F3F61" transform="translate(914,1011)"/>
<path d="M0 0 C3.29787248 0.67648666 4.51229027 1.76027846 6.4375 4.5 C6.1875 7.25 6.1875 7.25 5.4375 9.5 C4.695 8.654375 3.9525 7.80875 3.1875 6.9375 C0.78454214 4.28298277 0.78454214 4.28298277 -1.6875 4.4375 C-4.00820777 5.75256774 -5.12762796 7.27594834 -6.5625 9.5 C-6.8925 7.85 -7.2225 6.2 -7.5625 4.5 C-5.07814068 2.22858576 -3.34574793 0.65282886 0 0 Z " fill="#374564" transform="translate(512.5625,546.5)"/>
<path d="M0 0 C6.38603578 -0.25043278 6.38603578 -0.25043278 9.375 0.96875 C12.26890879 2.10564274 14.71939594 2.40140212 17.8125 2.625 C19.27623047 2.73714844 19.27623047 2.73714844 20.76953125 2.8515625 C21.50558594 2.90054688 22.24164063 2.94953125 23 3 C17.65397364 6.56401757 10.47440388 4.68560195 4.3671875 3.48046875 C2.56634405 3.03187155 0.78046363 2.52366577 -1 2 C-0.67 1.34 -0.34 0.68 0 0 Z " fill="#3D4B6B" transform="translate(137,1018)"/>
<path d="M0 0 C0.33 0 0.66 0 1 0 C2.05838127 6.00860549 2.11662571 11.84627561 2.0625 17.9375 C2.05798828 18.90751953 2.05347656 19.87753906 2.04882812 20.87695312 C2.0371315 23.2513676 2.02074086 25.62565021 2 28 C1.34 28.33 0.68 28.66 0 29 C-0.75406186 19.20879681 -1.22598899 9.78905055 0 0 Z " fill="#27375B" transform="translate(230,364)"/>
<path d="M0 0 C2.96175123 0.61277612 4.38058783 1.25372522 7 3 C10.38693192 2.65262237 13.03721286 1.64599285 16 0 C16 3 16 3 13.75 5.75 C11 8 11 8 9.0625 7.828125 C6.69025446 6.87563247 5.15757261 5.6956201 3.25 4 C2.63640625 3.46375 2.0228125 2.9275 1.390625 2.375 C0.93171875 1.92125 0.4728125 1.4675 0 1 C0 0.67 0 0.34 0 0 Z " fill="#354362" transform="translate(503,255)"/>
<path d="M0 0 C4.0879355 0.54168757 6.42190476 1.74231877 9.625 4.3125 C10.38039063 4.90675781 11.13578125 5.50101563 11.9140625 6.11328125 C13.9291688 7.93593358 15.45597796 9.77247775 17 12 C16.01 13.485 16.01 13.485 15 15 C14.34 13.02 13.68 11.04 13 9 C12.01 9 11.02 9 10 9 C10 8.34 10 7.68 10 7 C7.69 6.34 5.38 5.68 3 5 C3 4.01 3 3.02 3 2 C2.01 2 1.02 2 0 2 C0 1.34 0 0.68 0 0 Z " fill="#2D3E5C" transform="translate(413,516)"/>
<path d="M0 0 C0.66 0.99 1.32 1.98 2 3 C-0.36292656 5.52588702 -1.66462511 6.88820837 -5 8 C-5.4125 8.598125 -5.825 9.19625 -6.25 9.8125 C-8.75765737 12.94707172 -11.39719443 14.23134999 -15 16 C-15.66 15.67 -16.32 15.34 -17 15 C-15.53626953 13.75283203 -15.53626953 13.75283203 -14.04296875 12.48046875 C-12.75775618 11.38287845 -11.47260303 10.28521855 -10.1875 9.1875 C-9.22360352 8.36668945 -9.22360352 8.36668945 -8.24023438 7.52929688 C-7.61826172 6.99755859 -6.99628906 6.46582031 -6.35546875 5.91796875 C-5.78465576 5.43094482 -5.21384277 4.9439209 -4.62573242 4.44213867 C-3.01956841 3.01735855 -1.50185891 1.53368638 0 0 Z " fill="#364464" transform="translate(372,398)"/>
<path d="M0 0 C2.97 0.495 2.97 0.495 6 1 C6.33 1.99 6.66 2.98 7 4 C7.5775 4.268125 8.155 4.53625 8.75 4.8125 C11.996138 6.5257395 13.74345671 9.14962952 16 12 C16.66 12.66 17.32 13.32 18 14 C13.92075314 13.43102703 11.54864688 11.27377312 8.4375 8.6875 C7.48746094 7.90761719 6.53742187 7.12773438 5.55859375 6.32421875 C3.35762786 4.32486806 1.66363732 2.44784346 0 0 Z " fill="#2D3B5C" transform="translate(56,976)"/>
<path d="M0 0 C1.04296875 1.84765625 1.04296875 1.84765625 2 4 C0.95888009 7.69124331 -0.95527674 10.7756287 -3 14 C-3.680625 15.093125 -4.36125 16.18625 -5.0625 17.3125 C-5.701875 18.199375 -6.34125 19.08625 -7 20 C-7.66 20 -8.32 20 -9 20 C-7.32073668 15.63221913 -5.36694083 11.41834992 -3.375 7.1875 C-2.88773438 6.14819336 -2.88773438 6.14819336 -2.390625 5.08789062 C-1.59500115 3.39133977 -0.79767301 1.69558835 0 0 Z " fill="#2E3D5E" transform="translate(562,837)"/>
<path d="M0 0 C0.66 0 1.32 0 2 0 C2.75166913 7.69118596 3.13690844 15.27227893 3 23 C2.34 23.33 1.68 23.66 1 24 C0.63439591 20.75118032 0.28452625 17.50085236 -0.0625 14.25 C-0.16626953 13.32960938 -0.27003906 12.40921875 -0.37695312 11.4609375 C-0.47041016 10.57148437 -0.56386719 9.68203125 -0.66015625 8.765625 C-0.74918213 7.94868164 -0.83820801 7.13173828 -0.92993164 6.29003906 C-1.00060221 3.98031789 -0.67352969 2.1994609 0 0 Z " fill="#253258" transform="translate(564,757)"/>
<path d="M0 0 C0.33 0 0.66 0 1 0 C1.19389096 2.4788213 1.38040123 4.95780931 1.5625 7.4375 C1.61857422 8.14455078 1.67464844 8.85160156 1.73242188 9.58007812 C1.86190993 11.38427837 1.93521608 13.19231952 2 15 C1.67 15.33 1.34 15.66 1 16 C0.76298761 18.85877909 0.57780818 21.69883297 0.4375 24.5625 C0.39431641 25.36880859 0.35113281 26.17511719 0.30664062 27.00585938 C0.20024738 29.00368805 0.09959112 31.0018207 0 33 C-0.33 33 -0.66 33 -1 33 C-1.02477373 28.94320623 -1.04289493 24.88644194 -1.05493164 20.82958984 C-1.05995118 19.45035027 -1.06676819 18.07111598 -1.07543945 16.69189453 C-1.0876092 14.70607817 -1.09271633 12.72022251 -1.09765625 10.734375 C-1.10289307 9.54038086 -1.10812988 8.34638672 -1.11352539 7.11621094 C-1.01941946 4.53305383 -0.76626155 2.44991581 0 0 Z " fill="#253358" transform="translate(569,636)"/>
<path d="M0 0 C4.18238834 0.54769371 6.59868545 2.89888889 9.75 5.5625 C11.22726563 6.80193359 11.22726563 6.80193359 12.734375 8.06640625 C13.48203125 8.70449219 14.2296875 9.34257812 15 10 C14.01 11.485 14.01 11.485 13 13 C12.34 13 11.68 13 11 13 C11 11.68 11 10.36 11 9 C10.21625 8.9175 9.4325 8.835 8.625 8.75 C7.325625 8.37875 7.325625 8.37875 6 8 C4.9375 6.0625 4.9375 6.0625 4 4 C1.9664052 2.73195434 1.9664052 2.73195434 0 2 C0 1.34 0 0.68 0 0 Z " fill="#2F3E62" transform="translate(236,401)"/>
<path d="M0 0 C5.28527476 0.53931375 9.33990517 1.53289097 14 4 C15.4375 6.1875 15.4375 6.1875 16 8 C15.01 8.495 15.01 8.495 14 9 C11.55667274 7.92481882 9.23245477 6.80191434 6.875 5.5625 C6.21628906 5.22412109 5.55757813 4.88574219 4.87890625 4.53710938 C3.24893453 3.69850074 1.62398091 2.85015189 0 2 C0 1.34 0 0.68 0 0 Z " fill="#303E61" transform="translate(89,1000)"/>
<path d="M0 0 C3.04332765 1.3584202 5.12309151 2.88463024 7.453125 5.2578125 C8.071875 5.88300781 8.690625 6.50820313 9.328125 7.15234375 C9.96234375 7.80332031 10.5965625 8.45429687 11.25 9.125 C11.8996875 9.78371094 12.549375 10.44242188 13.21875 11.12109375 C14.81711727 12.74296643 16.41061897 14.3693281 18 16 C14.24167933 16 13.6301838 15.06392776 10.9375 12.5625 C8.1815464 9.97320177 8.1815464 9.97320177 5 8 C4.67 7.01 4.34 6.02 4 5 C2.67151309 3.99357052 1.33849671 2.99307821 0 2 C0 1.34 0 0.68 0 0 Z " fill="#2D395A" transform="translate(964,44)"/>
<path d="M0 0 C0.99 0.33 1.98 0.66 3 1 C0.37159758 5.18597423 -2.28153127 8.67294903 -6 12 C-6.66 12 -7.32 12 -8 12 C-8 10.68 -8 9.36 -8 8 C-6.05651499 6.26776336 -4.05279996 4.60118397 -2 3 C-1.34 2.01 -0.68 1.02 0 0 Z " fill="#2C3D63" transform="translate(529,890)"/>
<path d="M0 0 C-1.56022637 3.82964655 -3.87555571 6.32190489 -7 9 C-8.32 9 -9.64 9 -11 9 C-9.55536047 5.62917442 -7.75336875 3.41962708 -5 1 C-2 0 -2 0 0 0 Z " fill="#273861" transform="translate(359,413)"/>
<path d="M0 0 C-1.56164448 4.2164401 -4.41485865 6.41869823 -8 9 C-9.32 9 -10.64 9 -12 9 C-12 8.01 -12 7.02 -12 6 C-10.13671875 4.39453125 -10.13671875 4.39453125 -7.6875 2.8125 C-6.88699219 2.28269531 -6.08648437 1.75289063 -5.26171875 1.20703125 C-3 0 -3 0 0 0 Z " fill="#334268" transform="translate(411,260)"/>
<path d="M0 0 C4.29 0 8.58 0 13 0 C13 0.99 13 1.98 13 3 C13.99 3.33 14.98 3.66 16 4 C16 4.66 16 5.32 16 6 C16.99 6.33 17.98 6.66 19 7 C18.67 7.99 18.34 8.98 18 10 C16.87411986 9.04270084 15.7493285 8.08412105 14.625 7.125 C13.99851562 6.59132812 13.37203125 6.05765625 12.7265625 5.5078125 C11.44163349 4.38567993 10.20628025 3.20628025 9 2 C6.79749008 1.53993654 6.79749008 1.53993654 4.375 1.375 C3.14910156 1.26285156 3.14910156 1.26285156 1.8984375 1.1484375 C1.27195312 1.09945312 0.64546875 1.05046875 0 1 C0 0.67 0 0.34 0 0 Z " fill="#3C4A6A" transform="translate(760,247)"/>
<path d="M0 0 C0.66 0.33 1.32 0.66 2 1 C0.71344735 2.81613362 -0.57939995 4.62780954 -1.875 6.4375 C-2.95394531 7.95150391 -2.95394531 7.95150391 -4.0546875 9.49609375 C-6 12 -6 12 -8 13 C-9 10 -9 10 -8.3125 7.375 C-7 5 -7 5 -5.0625 4.4375 C-4.381875 4.293125 -3.70125 4.14875 -3 4 C-1.24577228 2.02329393 -1.24577228 2.02329393 0 0 Z " fill="#E9F0F8" transform="translate(659,463)"/>
<path d="M0 0 C0.33 0 0.66 0 1 0 C1.03738281 0.61746094 1.07476562 1.23492188 1.11328125 1.87109375 C1.58723416 7.9767224 2.80600373 13.28733047 5 19 C3.125 18.8125 3.125 18.8125 1 18 C-1.36283646 14.03536336 -1.07855461 10.67769066 -0.625 6.1875 C-0.51414062 5.02605469 -0.40328125 3.86460937 -0.2890625 2.66796875 C-0.19367188 1.78753906 -0.09828125 0.90710938 0 0 Z " fill="#465472" transform="translate(458,822)"/>
<path d="M0 0 C0.33 0 0.66 0 1 0 C1.33 2.64 1.66 5.28 2 8 C2.33 8 2.66 8 3 8 C2.67 14.27 2.34 20.54 2 27 C1.34 26.67 0.68 26.34 0 26 C0 17.42 0 8.84 0 0 Z " fill="#2C3D65" transform="translate(257,259)"/>
<path d="M0 0 C5.94 0 11.88 0 18 0 C18 0.33 18 0.66 18 1 C8.1 2.485 8.1 2.485 -2 4 C-1.34 2.68 -0.68 1.36 0 0 Z " fill="#E8F1F8" transform="translate(140,0)"/>
<path d="M0 0 C1.32 0.33 2.64 0.66 4 1 C3.51781006 2.07350708 3.51781006 2.07350708 3.02587891 3.16870117 C1.98226986 6.04893298 1.69284634 8.25387922 1.5859375 11.30078125 C1.54726563 12.27724609 1.50859375 13.25371094 1.46875 14.25976562 C1.4378125 15.26716797 1.406875 16.27457031 1.375 17.3125 C1.33632813 18.33923828 1.29765625 19.36597656 1.2578125 20.42382812 C1.16385103 22.94904265 1.0781846 25.47425592 1 28 C0.67 28 0.34 28 0 28 C0 18.76 0 9.52 0 0 Z " fill="#283863" transform="translate(570,576)"/>
<path d="M0 0 C0.99 0.33 1.98 0.66 3 1 C1.73034469 2.43854058 0.45922782 3.87579127 -0.8125 5.3125 C-1.52019531 6.11300781 -2.22789063 6.91351563 -2.95703125 7.73828125 C-4.59337122 9.54983162 -6.25272168 11.29681703 -8 13 C-7.62472519 7.62106101 -6.00517004 5.51673467 -2 2 C-1.34 1.34 -0.68 0.68 0 0 Z " fill="#EBF3F9" transform="translate(43,56)"/>
<path d="M0 0 C0.66 0 1.32 0 2 0 C1.67 5.61 1.34 11.22 1 17 C0.34 17.33 -0.32 17.66 -1 18 C-0.98839844 17.30132812 -0.97679687 16.60265625 -0.96484375 15.8828125 C-0.95582031 14.97273438 -0.94679688 14.06265625 -0.9375 13.125 C-0.92589844 12.22007812 -0.91429687 11.31515625 -0.90234375 10.3828125 C-0.83750743 7.9831415 -0.83750743 7.9831415 -2 6 C-1.39421747 3.98072489 -0.73080266 1.97746603 0 0 Z " fill="#283860" transform="translate(397,272)"/>
<path d="M0 0 C0.33 0 0.66 0 1 0 C1.0816082 2.37570543 1.14077222 4.74855841 1.1875 7.125 C1.21263672 7.79015625 1.23777344 8.4553125 1.26367188 9.140625 C1.33320714 13.86902292 0.40278375 16.95121479 -2 21 C-2.91145054 18.02977779 -3.01801972 15.93514414 -2.44140625 12.890625 C-2.30283203 12.13652344 -2.16425781 11.38242187 -2.02148438 10.60546875 C-1.87001953 9.82816406 -1.71855469 9.05085937 -1.5625 8.25 C-1.41490234 7.45722656 -1.26730469 6.66445313 -1.11523438 5.84765625 C-0.75096034 3.89702754 -0.37647488 1.9483107 0 0 Z " fill="#D8E3EC" transform="translate(1023,867)"/>
<path d="M0 0 C0.33 0 0.66 0 1 0 C1.96737162 5.20215926 1.89062943 9.69610938 1.0625 14.9375 C0.96259766 15.62134766 0.86269531 16.30519531 0.75976562 17.00976562 C0.51529548 18.6744909 0.2589029 20.33745822 0 22 C-0.33 22 -0.66 22 -1 22 C-1.02887814 18.52085059 -1.04675687 15.04173169 -1.0625 11.5625 C-1.07087891 10.56927734 -1.07925781 9.57605469 -1.08789062 8.55273438 C-1.09111328 7.60849609 -1.09433594 6.66425781 -1.09765625 5.69140625 C-1.10289307 4.81685791 -1.10812988 3.94230957 -1.11352539 3.04125977 C-1 1 -1 1 0 0 Z " fill="#3F4D6A" transform="translate(372,298)"/>
<path d="M0 0 C1.54363098 4.11634927 0.73840234 7.77096844 0 12 C-0.99 13.485 -0.99 13.485 -2 15 C-2.99 15 -3.98 15 -5 15 C-1.92482916 4.44191344 -1.92482916 4.44191344 0 0 Z " fill="#364764" transform="translate(14,104)"/>
<path d="M0 0 C0.33 0 0.66 0 1 0 C1 6.6 1 13.2 1 20 C-0.98 20.33 -2.96 20.66 -5 21 C-5 19.68 -5 18.36 -5 17 C-2.525 17.99 -2.525 17.99 0 19 C0 12.73 0 6.46 0 0 Z " fill="#293A60" transform="translate(505,880)"/>
<path d="M0 0 C1.32 0 2.64 0 4 0 C4.22226864 1.76913824 4.42733873 3.54044371 4.625 5.3125 C4.74101563 6.29863281 4.85703125 7.28476562 4.9765625 8.30078125 C5 11 5 11 3 14 C2.86722656 13.32453125 2.73445312 12.6490625 2.59765625 11.953125 C2.42105469 11.06109375 2.24445312 10.1690625 2.0625 9.25 C1.88847656 8.36828125 1.71445312 7.4865625 1.53515625 6.578125 C1.07631512 4.36764947 0.56663926 2.18487932 0 0 Z " fill="#27365A" transform="translate(563,815)"/>
<path d="M0 0 C0.99 0.33 1.98 0.66 3 1 C1.02 3.97 -0.96 6.94 -3 10 C-3.66 9.67 -4.32 9.34 -5 9 C-4.5206753 4.68607774 -3.2542015 2.83430453 0 0 Z " fill="#334465" transform="translate(465,805)"/>
<path d="M0 0 C0.33 0 0.66 0 1 0 C0.67 2.31 0.34 4.62 0 7 C-0.66 7 -1.32 7 -2 7 C-3.68762851 8.6454378 -5.3540349 10.31288577 -7 12 C-7.99 12.495 -7.99 12.495 -9 13 C-7.51222697 9.74035658 -5.64333184 7.06830707 -3.4375 4.25 C-2.81746094 3.45078125 -2.19742187 2.6515625 -1.55859375 1.828125 C-0.78708984 0.92320312 -0.78708984 0.92320312 0 0 Z " fill="#E2EBF2" transform="translate(474,798)"/>
<path d="M0 0 C0.33 0 0.66 0 1 0 C1 1.65 1 3.3 1 5 C1.66 5 2.32 5 3 5 C2.67 9.62 2.34 14.24 2 19 C-0.52775351 15.20836973 -0.22443035 12.19125969 -0.125 7.8125 C-0.11597656 7.06291016 -0.10695313 6.31332031 -0.09765625 5.54101562 C-0.07412578 3.69387346 -0.03825561 1.84689588 0 0 Z " fill="#374465" transform="translate(707,331)"/>
<path d="M0 0 C2.97 0 5.94 0 9 0 C9 0.66 9 1.32 9 2 C10.98 2.66 12.96 3.32 15 4 C15.33 5.65 15.66 7.3 16 9 C12.63820226 7.55922954 10.40843732 5.75249979 8 3 C8 2.34 8 1.68 8 1 C5.36 1 2.72 1 0 1 C0 0.67 0 0.34 0 0 Z " fill="#26355C" transform="translate(488,246)"/>
<path d="M0 0 C1.39456452 0.00667256 2.78911118 0.01863093 4.18359375 0.03515625 C4.89451172 0.03966797 5.60542969 0.04417969 6.33789062 0.04882812 C8.09899388 0.06064761 9.86005411 0.07858362 11.62109375 0.09765625 C11.62109375 0.42765625 11.62109375 0.75765625 11.62109375 1.09765625 C7.33109375 2.08765625 3.04109375 3.07765625 -1.37890625 4.09765625 C-1.37890625 3.43765625 -1.37890625 2.77765625 -1.37890625 2.09765625 C-2.36890625 1.76765625 -3.35890625 1.43765625 -4.37890625 1.09765625 C-3.37890625 0.09765625 -3.37890625 0.09765625 0 0 Z " fill="#334368" transform="translate(153.37890625,0.90234375)"/>
<path d="M0 0 C0.56460938 0.28875 1.12921875 0.5775 1.7109375 0.875 C4.75000034 2.36860085 7.86097474 3.67509889 10.9765625 5 C13 6 13 6 15 8 C13.359375 8.70703125 13.359375 8.70703125 11 9 C8.203125 7.63671875 8.203125 7.63671875 5.25 5.6875 C4.26515625 5.05199219 3.2803125 4.41648437 2.265625 3.76171875 C1.51796875 3.18035156 0.7703125 2.59898437 0 2 C0 1.34 0 0.68 0 0 Z " fill="#314062" transform="translate(75,991)"/>
<path d="M0 0 C1.32 0 2.64 0 4 0 C2.48328036 4.55015893 -1.16891053 6.50057264 -5 9 C-5.33 8.01 -5.66 7.02 -6 6 C-5.01 6 -4.02 6 -3 6 C-2.87625 5.38125 -2.7525 4.7625 -2.625 4.125 C-2 2 -2 2 0 0 Z " fill="#323F63" transform="translate(661,261)"/>
<path d="M0 0 C6.27 0 12.54 0 19 0 C19.33 0.99 19.66 1.98 20 3 C13.4 2.34 6.8 1.68 0 1 C0 0.67 0 0.34 0 0 Z " fill="#D1DDEA" transform="translate(862,0)"/>
<path d="M0 0 C1.32 0.66 2.64 1.32 4 2 C-2.36363636 7 -2.36363636 7 -7 7 C-6.34 5.35 -5.68 3.7 -5 2 C-3.35 2 -1.7 2 0 2 C0 1.34 0 0.68 0 0 Z " fill="#303E62" transform="translate(927,1001)"/>
<path d="M0 0 C0.99 0.33 1.98 0.66 3 1 C0.0094833 4.33557632 -2.93184627 6.15083921 -7 8 C-6.875 6.25 -6.875 6.25 -6 4 C-3.125 1.6875 -3.125 1.6875 0 0 Z " fill="#354366" transform="translate(939,995)"/>
<path d="M0 0 C0.33 0 0.66 0 1 0 C2.11388158 7.30062141 2.17441612 12.27023784 -1 19 C-1.33 19 -1.66 19 -2 19 C-1.7834375 17.081875 -1.7834375 17.081875 -1.5625 15.125 C-1.00185355 10.08719116 -0.49498469 5.04463121 0 0 Z " fill="#475574" transform="translate(565,822)"/>
<path d="M0 0 C0.66 0 1.32 0 2 0 C1.42365861 4.75481646 -0.55068521 7.97048212 -3 12 C-3.66 12 -4.32 12 -5 12 C-3.68938409 7.76570244 -2.05643741 3.92592596 0 0 Z " fill="#354463" transform="translate(20,92)"/>
<path d="M0 0 C1.05283182 3.15849546 1.29904469 4.030755 0 7 C-2.375 8.8125 -2.375 8.8125 -5 10 C-5.99 9.67 -6.98 9.34 -8 9 C-5.36 6.03 -2.72 3.06 0 0 Z " fill="#314163" transform="translate(46,56)"/>
<path d="M0 0 C5.94 0.66 11.88 1.32 18 2 C18 2.33 18 2.66 18 3 C15.37438891 3.08074203 12.75124324 3.1403623 10.125 3.1875 C9.00544922 3.22520508 9.00544922 3.22520508 7.86328125 3.26367188 C5.6953125 3.29296875 5.6953125 3.29296875 2 3 C1.34 2.01 0.68 1.02 0 0 Z " fill="#EBF4FC" transform="translate(140,1021)"/>
<path d="M0 0 C0.33 0.99 0.66 1.98 1 3 C0.34 3 -0.32 3 -1 3 C-2.20628008 5.33214148 -3.1654738 7.49642139 -4 10 C-4.99 10 -5.98 10 -7 10 C-6.84518205 7.29068581 -6.51827919 5.53415961 -4.59765625 3.5546875 C-3.10228292 2.32320358 -1.5537076 1.1570163 0 0 Z " fill="#384561" transform="translate(556,788)"/>
<path d="M0 0 C1.33251874 2.66503748 1.01132019 5.03565201 0.96875 7.95703125 C1.00601099 10.39296825 1.40998327 12.63993309 2 15 C-1.62107449 10.55595403 -3.33060893 6.78565632 -3 1 C-2.01 0.67 -1.02 0.34 0 0 Z " fill="#3B4666" transform="translate(556,684)"/>
<path d="M0 0 C-3.465 2.97 -3.465 2.97 -7 6 C-8.32 5.34 -9.64 4.68 -11 4 C-9.73760288 3.13341385 -8.46472499 2.28207941 -7.1875 1.4375 C-6.47980469 0.96183594 -5.77210938 0.48617188 -5.04296875 -0.00390625 C-3 -1 -3 -1 0 0 Z " fill="#324061" transform="translate(620,511)"/>
<path d="M0 0 C3.875 1.75 3.875 1.75 5 4 C5.1875 7 5.1875 7 5 10 C4.34 10.66 3.68 11.32 3 12 C1.82923301 8.01939223 0.74250597 4.08378283 0 0 Z " fill="#3D4865" transform="translate(466,681)"/>
<path d="M0 0 C1.32 0.33 2.64 0.66 4 1 C4.103125 1.61875 4.20625 2.2375 4.3125 2.875 C4.87525373 5.36526484 4.87525373 5.36526484 8 7 C7.67 8.32 7.34 9.64 7 11 C5.82750647 9.54634731 4.66216184 8.08692581 3.5 6.625 C2.52546875 5.40683594 2.52546875 5.40683594 1.53125 4.1640625 C0 2 0 2 0 0 Z " fill="#2D3C5B" transform="translate(33,949)"/>
<path d="M0 0 C3.21880117 3.7935871 5.6163187 7.65829477 8 12 C4.81537776 11.05322042 3.26302338 10.33558155 1.1875 7.6875 C-0.06161737 4.86055017 -0.26151458 3.05100339 0 0 Z " fill="#384666" transform="translate(356,453)"/>
<path d="M0 0 C0.33 0.66 0.66 1.32 1 2 C1.99 2.33 2.98 2.66 4 3 C5.6875 6.5625 5.6875 6.5625 7 10 C6.34 10 5.68 10 5 10 C4.34 8.35 3.68 6.7 3 5 C1.35 5 -0.3 5 -2 5 C-1.34 3.35 -0.68 1.7 0 0 Z " fill="#2B3B63" transform="translate(349,442)"/>
<path d="M0 0 C1.38294718 0.01329757 2.76582404 0.03715018 4.1484375 0.0703125 C4.85484375 0.07933594 5.56125 0.08835937 6.2890625 0.09765625 C8.03399848 0.12123647 9.77876045 0.15710789 11.5234375 0.1953125 C11.1934375 1.1853125 10.8634375 2.1753125 10.5234375 3.1953125 C5.2434375 2.8653125 -0.0365625 2.5353125 -5.4765625 2.1953125 C-3.4765625 0.1953125 -3.4765625 0.1953125 0 0 Z " fill="#324067" transform="translate(542.4765625,440.8046875)"/>
<path d="M0 0 C0.66 0.33 1.32 0.66 2 1 C1.55037804 2.96035175 1.09001752 4.91824309 0.625 6.875 C0.36976563 7.96554687 0.11453125 9.05609375 -0.1484375 10.1796875 C-1 13 -1 13 -3 15 C-2.69257097 12.68682039 -2.37892298 10.37446648 -2.0625 8.0625 C-1.88847656 6.77472656 -1.71445312 5.48695313 -1.53515625 4.16015625 C-1 1 -1 1 0 0 Z " fill="#29385A" transform="translate(1017,890)"/>
<path d="M0 0 C3.59634744 3.49359465 6.83451967 7.11098131 10 11 C9.01 11.495 9.01 11.495 8 12 C5.86088258 9.94870558 4.04262537 7.84304969 2.3125 5.4375 C1.65701172 4.53837891 1.65701172 4.53837891 0.98828125 3.62109375 C0 2 0 2 0 0 Z " fill="#374462" transform="translate(490,885)"/>
<path d="M0 0 C0.33 0 0.66 0 1 0 C1.95498418 4.7749209 2.24243031 9.15139376 2 14 C1.34 14.66 0.68 15.32 0 16 C-0.82622671 10.39436958 -1.06795656 5.57710648 0 0 Z " fill="#2F3D63" transform="translate(3,869)"/>
<path d="M0 0 C0.99 0.33 1.98 0.66 3 1 C0.03 3.64 -2.94 6.28 -6 9 C-6.33 8.01 -6.66 7.02 -7 6 C-4.77124444 3.77124444 -2.57585768 1.82194812 0 0 Z " fill="#333F61" transform="translate(361,432)"/>
<path d="M0 0 C4.78504172 2.48454089 7.86077669 4.47951843 11 9 C10.67 9.66 10.34 10.32 10 11 C8.32742645 9.5484451 6.66208242 8.08855591 5 6.625 C3.6078125 5.40683594 3.6078125 5.40683594 2.1875 4.1640625 C1.465625 3.44992187 0.74375 2.73578125 0 2 C0 1.34 0 0.68 0 0 Z " fill="#33415F" transform="translate(657,428)"/>
<path d="M0 0 C-2.64 1.98 -5.28 3.96 -8 6 C-8.99 5.34 -9.98 4.68 -11 4 C-10.360625 3.896875 -9.72125 3.79375 -9.0625 3.6875 C-8.381875 3.460625 -7.70125 3.23375 -7 3 C-6.67 2.01 -6.34 1.02 -6 0 C-4 -1 -4 -1 0 0 Z " fill="#37456A" transform="translate(382,418)"/>
<path d="M0 0 C0.66 0.33 1.32 0.66 2 1 C1.67 4.63 1.34 8.26 1 12 C0.34 11.67 -0.32 11.34 -1 11 C-1.02688151 9.35425434 -1.04634123 7.70838587 -1.0625 6.0625 C-1.07410156 5.14597656 -1.08570313 4.22945312 -1.09765625 3.28515625 C-1 1 -1 1 0 0 Z " fill="#314063" transform="translate(1021,868)"/>
<path d="M0 0 C0.99 0 1.98 0 3 0 C3 0.66 3 1.32 3 2 C2.34 2.66 1.68 3.32 1 4 C0.30251417 5.31747324 -0.36959957 6.64914193 -1 8 C-2.32 7.67 -3.64 7.34 -5 7 C-4.24172908 5.82512964 -3.46792245 4.66027408 -2.6875 3.5 C-2.25824219 2.8503125 -1.82898438 2.200625 -1.38671875 1.53125 C-0.70029297 0.77328125 -0.70029297 0.77328125 0 0 Z " fill="#2D3C5F" transform="translate(658,467)"/>
<path d="M0 0 C-1.49097658 3.7952131 -3.75700849 5.61042731 -7 8 C-6.62952882 5.25851328 -6.31412056 3.41406801 -4.625 1.1875 C-3 0 -3 0 0 0 Z " fill="#3A496A" transform="translate(680,247)"/>
<path d="M0 0 C2.33944736 0.28730055 4.6739143 0.61936779 7 1 C7 2.32 7 3.64 7 5 C1.25 3.25 1.25 3.25 -1 1 C-0.67 0.67 -0.34 0.34 0 0 Z " fill="#2A3B5F" transform="translate(900,8)"/>
<path d="M0 0 C0.33 0.66 0.66 1.32 1 2 C0.06553465 4.03144641 -0.93224776 6.03533587 -2 8 C-3.65 8 -5.3 8 -7 8 C-6.02133662 6.85373678 -5.04205413 5.70800212 -4.0625 4.5625 C-3.51722656 3.92441406 -2.97195313 3.28632813 -2.41015625 2.62890625 C-1.63204305 1.73008851 -0.84063472 0.84063472 0 0 Z " fill="#3D4C6C" transform="translate(640,489)"/>
<path d="M0 0 C3.44687487 0.17526482 4.79856206 0.57403135 7.6875 2.1875 C6.25215159 2.4101746 4.81404475 2.61511906 3.375 2.8125 C2.57449219 2.92851563 1.77398437 3.04453125 0.94921875 3.1640625 C-1.3125 3.1875 -1.3125 3.1875 -4.3125 1.1875 C-3.3125 0.1875 -3.3125 0.1875 0 0 Z " fill="#354269" transform="translate(140.3125,1017.8125)"/>
<path d="M0 0 C0.66 0.33 1.32 0.66 2 1 C1.01 1.33 0.02 1.66 -1 2 C-1 2.99 -1 3.98 -1 5 C-4.75 6.125 -4.75 6.125 -7 5 C-7 4.34 -7 3.68 -7 3 C-4.69631264 1.93347808 -2.35981813 0.93578995 0 0 Z " fill="#8593B8" transform="translate(951,964)"/>
<path d="M0 0 C1.32 0.33 2.64 0.66 4 1 C1.525 4.465 1.525 4.465 -1 8 C-1.66 7.67 -2.32 7.34 -3 7 C-2.690625 6.401875 -2.38125 5.80375 -2.0625 5.1875 C-0.89790296 2.91043228 -0.89790296 2.91043228 0 0 Z " fill="#324061" transform="translate(988,949)"/>
<path d="M0 0 C1.04449911 3.13349732 0.93423645 3.98968256 0 7 C-0.66 7 -1.32 7 -2 7 C-2.66 8.32 -3.32 9.64 -4 11 C-4.66 10.34 -5.32 9.68 -6 9 C-4.02 6.03 -2.04 3.06 0 0 Z " fill="#394766" transform="translate(547,865)"/>
<path d="M0 0 C0.33 0 0.66 0 1 0 C1 4.29 1 8.58 1 13 C0.34 13 -0.32 13 -1 13 C-2.12758089 9.61725734 -1.81750262 8.23221777 -1.0625 4.8125 C-0.86785156 3.91144531 -0.67320312 3.01039063 -0.47265625 2.08203125 C-0.23869141 1.05142578 -0.23869141 1.05142578 0 0 Z " fill="#213258" transform="translate(458,767)"/>
<path d="M0 0 C3.7952131 1.49097658 5.61042731 3.75700849 8 7 C5.6875 7.3125 5.6875 7.3125 3 7 C1.18116991 4.6167054 0 3.04181663 0 0 Z " fill="#263557" transform="translate(665,411)"/>
<path d="M0 0 C0.66 0 1.32 0 2 0 C2 3.3 2 6.6 2 10 C1.01 10.495 1.01 10.495 0 11 C-1.28571429 3.57142857 -1.28571429 3.57142857 0 0 Z " fill="#2C3D60" transform="translate(564,757)"/>
<path d="M0 0 C0 1.65 0 3.3 0 5 C0.66 5 1.32 5 2 5 C2.33 6.32 2.66 7.64 3 9 C1.68 8.67 0.36 8.34 -1 8 C-1.66 5.69 -2.32 3.38 -3 1 C-1 0 -1 0 0 0 Z " fill="#313E64" transform="translate(563,704)"/>
<path d="M0 0 C0.99 0.33 1.98 0.66 3 1 C0.42215154 3.64752004 -1.91648098 5.94432065 -5 8 C-4.66275164 4.88045262 -4.3790035 3.3790035 -2.125 1.125 C-1.42375 0.75375 -0.7225 0.3825 0 0 Z " fill="#29395C" transform="translate(565,674)"/>
<path d="M0 0 C0.33 0.99 0.66 1.98 1 3 C-0.62339805 4.70884005 -2.29319053 6.37446717 -4 8 C-4.66 8 -5.32 8 -6 8 C-5.67 6.68 -5.34 5.36 -5 4 C-4.0409375 3.8453125 -4.0409375 3.8453125 -3.0625 3.6875 C-2.381875 3.460625 -1.70125 3.23375 -1 3 C-0.67 2.01 -0.34 1.02 0 0 Z " fill="#27355A" transform="translate(672,252)"/>
<path d="M0 0 C2.31 0.33 4.62 0.66 7 1 C7 2.65 7 4.3 7 6 C3.535 4.02 3.535 4.02 0 2 C0 1.34 0 0.68 0 0 Z " fill="#E8F0F5" transform="translate(941,24)"/>
<path d="M0 0 C2.88437779 1.29299694 4.87219421 2.65941363 7 5 C6.67 5.66 6.34 6.32 6 7 C3.5625 6.3125 3.5625 6.3125 1 5 C0.1875 2.375 0.1875 2.375 0 0 Z " fill="#344261" transform="translate(464,786)"/>
<path d="M0 0 C2.96865509 2.54456151 4.3619751 5.48994665 6 9 C3.5067466 8.00269864 2.22532561 7.34925469 0.75 5.0625 C0 3 0 3 0 0 Z " fill="#DFE7F1" transform="translate(21,933)"/>
<path d="M0 0 C0.85039667 2.38111068 1.07366994 3.71350578 0.4375 6.1875 C-1 8 -1 8 -4.125 8.75 C-5.548125 8.87375 -5.548125 8.87375 -7 9 C-6.21625 8.2575 -5.4325 7.515 -4.625 6.75 C-2.43495469 4.45566682 -1.17268614 2.87841142 0 0 Z " fill="#354564" transform="translate(564,779)"/>
<path d="M0 0 C0.99 0.33 1.98 0.66 3 1 C1.25 6.75 1.25 6.75 -1 9 C-2.25541557 5.23375329 -1.37061958 3.62811066 0 0 Z " fill="#D6E1EE" transform="translate(670,441)"/>
<path d="M0 0 C1.76462683 3.08809695 2 4.23312136 2 8 C0.68 7.67 -0.64 7.34 -2 7 C-1.34 4.69 -0.68 2.38 0 0 Z " fill="#3F4D6B" transform="translate(1018,130)"/>
<path d="M0 0 C0.66 0.33 1.32 0.66 2 1 C0.1875 3.5 0.1875 3.5 -2 6 C-2.99 6 -3.98 6 -5 6 C-3.63016497 2.83884224 -3.0109362 2.0072908 0 0 Z " fill="#283A5B" transform="translate(75,31)"/>
<path d="M0 0 C4.455 1.98 4.455 1.98 9 4 C7.02 4.99 7.02 4.99 5 6 C4.34 5.67 3.68 5.34 3 5 C3 4.34 3 3.68 3 3 C2.01 2.67 1.02 2.34 0 2 C0 1.34 0 0.68 0 0 Z " fill="#344361" transform="translate(925,17)"/>
<path d="M0 0 C0.99 0.33 1.98 0.66 3 1 C-0.465 3.97 -0.465 3.97 -4 7 C-4 5.68 -4 4.36 -4 3 C-2.68 2.67 -1.36 2.34 0 2 C0 1.34 0 0.68 0 0 Z " fill="#E9F4FC" transform="translate(632,494)"/>
<path d="M0 0 C-2.97 2.475 -2.97 2.475 -6 5 C-6 3.35 -6 1.7 -6 0 C-3 -1 -3 -1 0 0 Z " fill="#253359" transform="translate(374,424)"/>
<path d="M0 0 C1.98 0 3.96 0 6 0 C4.35 1.65 2.7 3.3 1 5 C0.67 3.35 0.34 1.7 0 0 Z " fill="#29375D" transform="translate(410,256)"/>
<path d="M0 0 C0.66 0.33 1.32 0.66 2 1 C-0.31 3.31 -2.62 5.62 -5 8 C-5.33 7.01 -5.66 6.02 -6 5 C-5.34 5 -4.68 5 -4 5 C-3.67 4.01 -3.34 3.02 -3 2 C-2.01 1.34 -1.02 0.68 0 0 Z " fill="#283559" transform="translate(422,248)"/>
<path d="M0 0 C0.66 0.66 1.32 1.32 2 2 C-1.96 3.98 -1.96 3.98 -6 6 C-5.67 4.68 -5.34 3.36 -5 2 C-2.4375 0.75 -2.4375 0.75 0 0 Z " fill="#E7F0F6" transform="translate(82,24)"/>
<path d="M0 0 C0.33 0.99 0.66 1.98 1 3 C-0.375 5.6875 -0.375 5.6875 -2 8 C-2.33 8 -2.66 8 -3 8 C-3.36923077 3.44615385 -3.36923077 3.44615385 -1.5 1.1875 C-1.005 0.795625 -0.51 0.40375 0 0 Z " fill="#2C385D" transform="translate(468,692)"/>
<path d="M0 0 C1.32 0 2.64 0 4 0 C4.33 1.65 4.66 3.3 5 5 C4.01 5.495 4.01 5.495 3 6 C0 2.25 0 2.25 0 0 Z " fill="#E4EDF5" transform="translate(364,464)"/>
<path d="M0 0 C2.475 0.99 2.475 0.99 5 2 C5 2.33 5 2.66 5 3 C1.37 3.33 -2.26 3.66 -6 4 C-6 3.67 -6 3.34 -6 3 C-5.195625 2.87625 -4.39125 2.7525 -3.5625 2.625 C-2.716875 2.41875 -1.87125 2.2125 -1 2 C-0.67 1.34 -0.34 0.68 0 0 Z " fill="#DBE4F1" transform="translate(554,441)"/>
<path d="M0 0 C0.99 0.33 1.98 0.66 3 1 C2.34 1 1.68 1 1 1 C0.34 2.65 -0.32 4.3 -1 6 C-1.99 6 -2.98 6 -4 6 C-2.84826645 3.53199953 -1.95216435 1.95216435 0 0 Z " fill="#243455" transform="translate(352,416)"/>
<path d="M0 0 C5.75 3.625 5.75 3.625 8 7 C7.01 7.495 7.01 7.495 6 8 C1.125 3.375 1.125 3.375 0 0 Z " fill="#2C3B5A" transform="translate(954,35)"/>
</svg>
